<svg xmlns="http://www.w3.org/2000/svg" width="1920" height="1080" viewBox="0 0 1920 1080"><path fill="#161A23" d="M-13.4-6.7h1950.5v1097.4H-13.4z"/><path opacity=".06" fill="#114761" d="M108.3 977.7l-82.8 89.5h163z"/><path opacity=".06" fill="#1383B3" d="M25.5 1067.2l-80.2-89.5-82.7 89.5z"/><path opacity=".06" fill="#6EC0E2" d="M25.6 1067.2l82.7-89.5h-163z"/><path opacity=".06" fill="#167297" d="M108.3 977.7l80.2 89.5 82.7-89.5z"/><path opacity=".06" fill="#114761" d="M434.1 977.7l-82.7 89.5h163z"/><path opacity=".06" fill="#1383B3" d="M351.4 1067.2l-80.2-89.5-82.7 89.5z"/><path opacity=".06" fill="#6EC0E2" d="M351.4 1067.2l82.7-89.5H271.2z"/><path opacity=".06" fill="#167297" d="M434.1 977.7l80.3 89.5 82.7-89.5z"/><path opacity=".06" fill="#114761" d="M760 977.7l-82.7 89.5h163z"/><path opacity=".06" fill="#1383B3" d="M677.3 1067.2l-80.2-89.5-82.7 89.5z"/><path opacity=".06" fill="#6EC0E2" d="M677.3 1067.2l82.7-89.5H597.1z"/><path opacity=".06" fill="#167297" d="M760 977.7l80.3 89.5 82.7-89.5z"/><path opacity=".06" fill="#114761" d="M1085.9 977.7l-82.7 89.5h163z"/><path opacity=".06" fill="#1383B3" d="M1003.2 1067.2L923 977.7l-82.7 89.5z"/><path opacity=".06" fill="#6EC0E2" d="M1003.2 1067.2l82.7-89.5H923z"/><path opacity=".06" fill="#167297" d="M1085.9 977.7l80.3 89.5 82.7-89.5z"/><path opacity=".06" fill="#114761" d="M191 888.2l-82.7 89.5h162.9z"/><path opacity=".06" fill="#1383B3" d="M108.3 977.7L28 888.2l-82.7 89.5z"/><path opacity=".06" fill="#6EC0E2" d="M108.3 977.7l82.7-89.5H28z"/><path opacity=".06" fill="#167297" d="M191 888.2l80.2 89.5 82.7-89.5z"/><path opacity=".06" fill="#114761" d="M516.9 888.2l-82.8 89.5h163z"/><path opacity=".06" fill="#1383B3" d="M434.1 977.7l-80.2-89.5-82.7 89.5z"/><path opacity=".06" fill="#6EC0E2" d="M434.1 977.7l82.8-89.5h-163z"/><path opacity=".06" fill="#167297" d="M516.9 888.2l80.2 89.5 82.7-89.5z"/><path opacity=".06" fill="#114761" d="M842.7 888.2L760 977.7h163z"/><path opacity=".06" fill="#1383B3" d="M760 977.7l-80.2-89.5-82.7 89.5z"/><path opacity=".06" fill="#6EC0E2" d="M760 977.7l82.7-89.5H679.8z"/><path opacity=".06" fill="#167297" d="M842.7 888.2l80.3 89.5 82.7-89.5z"/><path opacity=".06" fill="#114761" d="M1168.6 888.2l-82.7 89.5h163z"/><path opacity=".06" fill="#1383B3" d="M1085.9 977.7l-80.2-89.5-82.7 89.5z"/><path opacity=".06" fill="#6EC0E2" d="M1085.9 977.7l82.7-89.5h-162.9z"/><path opacity=".06" fill="#167297" d="M1168.6 888.2l80.3 89.5 82.7-89.5z"/><path opacity=".06" fill="#114761" d="M110.7 798.7L28 888.2h163z"/><path opacity=".06" fill="#1383B3" d="M28 888.2l-80.2-89.5-82.7 89.5z"/><path opacity=".06" fill="#6EC0E2" d="M28 888.2l82.7-89.5H-52.2z"/><path opacity=".06" fill="#167297" d="M110.7 798.7l80.3 89.5 82.7-89.5z"/><path opacity=".06" fill="#114761" d="M436.6 798.7l-82.7 89.5h163z"/><path opacity=".06" fill="#1383B3" d="M353.9 888.2l-80.2-89.5-82.7 89.5z"/><path opacity=".06" fill="#6EC0E2" d="M353.9 888.2l82.7-89.5H273.7z"/><path opacity=".06" fill="#167297" d="M436.6 798.7l80.3 89.5 82.7-89.5z"/><path opacity=".06" fill="#114761" d="M762.5 798.7l-82.7 89.5h162.9z"/><path opacity=".06" fill="#1383B3" d="M679.8 888.2l-80.2-89.5-82.7 89.5z"/><path opacity=".06" fill="#6EC0E2" d="M679.8 888.2l82.7-89.5H599.6z"/><path opacity=".06" fill="#167297" d="M762.5 798.7l80.2 89.5 82.7-89.5z"/><path opacity=".06" fill="#114761" d="M1088.4 798.7l-82.7 89.5h162.9z"/><path opacity=".06" fill="#1383B3" d="M1005.7 888.2l-80.2-89.5-82.8 89.5z"/><path opacity=".06" fill="#6EC0E2" d="M1005.7 888.2l82.7-89.5H925.5z"/><path opacity=".06" fill="#167297" d="M1088.4 798.7l80.2 89.5 82.7-89.5z"/><path opacity=".06" fill="#114761" d="M193.4 709.2l-82.7 89.5h163z"/><path opacity=".06" fill="#1383B3" d="M110.7 798.7l-80.2-89.5-82.7 89.5z"/><path opacity=".06" fill="#6EC0E2" d="M110.7 798.7l82.7-89.5H30.5z"/><path opacity=".06" fill="#167297" d="M193.4 709.2l80.3 89.5 82.7-89.5z"/><path opacity=".06" fill="#114761" d="M519.3 709.2l-82.7 89.5h163z"/><path opacity=".06" fill="#1383B3" d="M436.6 798.7l-80.2-89.5-82.7 89.5z"/><path opacity=".06" fill="#6EC0E2" d="M436.6 798.7l82.7-89.5H356.4z"/><path opacity=".06" fill="#167297" d="M519.3 709.2l80.3 89.5 82.7-89.5z"/><path opacity=".06" fill="#114761" d="M845.2 709.2l-82.7 89.5h162.9z"/><path opacity=".06" fill="#1383B3" d="M762.5 798.7l-80.2-89.5-82.7 89.5z"/><path opacity=".06" fill="#6EC0E2" d="M762.5 798.7l82.7-89.5H682.3z"/><path opacity=".06" fill="#167297" d="M845.2 709.2l80.2 89.5 82.8-89.5z"/><path opacity=".06" fill="#114761" d="M1171.1 709.2l-82.7 89.5h162.9z"/><path opacity=".06" fill="#1383B3" d="M1088.4 798.7l-80.2-89.5-82.7 89.5z"/><path opacity=".06" fill="#6EC0E2" d="M1088.4 798.7l82.7-89.5h-162.9z"/><path opacity=".06" fill="#167297" d="M1171.1 709.2l80.2 89.5 82.7-89.5z"/><path opacity=".06" fill="#114761" d="M113.2 619.7l-82.7 89.5h162.9z"/><path opacity=".06" fill="#1383B3" d="M30.5 709.2l-80.2-89.5-82.8 89.5z"/><path opacity=".06" fill="#6EC0E2" d="M30.5 709.2l82.7-89.5H-49.7z"/><path opacity=".06" fill="#167297" d="M113.2 619.7l80.2 89.5 82.7-89.5z"/><path opacity=".06" fill="#114761" d="M439.1 619.7l-82.7 89.5h162.9z"/><path opacity=".06" fill="#1383B3" d="M356.4 709.2l-80.3-89.5-82.7 89.5z"/><path opacity=".06" fill="#6EC0E2" d="M356.4 709.2l82.7-89.5h-163z"/><path opacity=".06" fill="#167297" d="M439.1 619.7l80.2 89.5 82.7-89.5z"/><path opacity=".06" fill="#114761" d="M765 619.7l-82.7 89.5h162.9z"/><path opacity=".06" fill="#1383B3" d="M682.3 709.2L602 619.7l-82.7 89.5z"/><path opacity=".06" fill="#6EC0E2" d="M682.3 709.2l82.7-89.5H602z"/><path opacity=".06" fill="#167297" d="M765 619.7l80.2 89.5 82.7-89.5z"/><path opacity=".06" fill="#114761" d="M1090.9 619.7l-82.7 89.5h162.9z"/><path opacity=".06" fill="#1383B3" d="M1008.2 709.2l-80.3-89.5-82.7 89.5z"/><path opacity=".06" fill="#6EC0E2" d="M1008.2 709.2l82.7-89.5h-163z"/><path opacity=".06" fill="#167297" d="M1090.9 619.7l80.2 89.5 82.7-89.5z"/><path opacity=".06" fill="#114761" d="M195.9 530.2l-82.7 89.5h162.9z"/><path opacity=".06" fill="#1383B3" d="M113.2 619.7L33 530.2l-82.7 89.5z"/><path opacity=".06" fill="#6EC0E2" d="M113.2 619.7l82.7-89.5H33z"/><path opacity=".06" fill="#167297" d="M195.9 530.2l80.2 89.5 82.7-89.5z"/><path opacity=".06" fill="#114761" d="M521.8 530.2l-82.7 89.5H602z"/><path opacity=".06" fill="#1383B3" d="M439.1 619.7l-80.2-89.5-82.8 89.5z"/><path opacity=".06" fill="#6EC0E2" d="M439.1 619.7l82.7-89.5H358.9z"/><path opacity=".06" fill="#167297" d="M521.8 530.2l80.2 89.5 82.7-89.5z"/><path opacity=".06" fill="#114761" d="M847.7 530.2L765 619.7h162.9z"/><path opacity=".06" fill="#1383B3" d="M765 619.7l-80.3-89.5-82.7 89.5z"/><path opacity=".06" fill="#6EC0E2" d="M765 619.7l82.7-89.5h-163z"/><path opacity=".06" fill="#167297" d="M847.7 530.2l80.2 89.5 82.7-89.5z"/><path opacity=".06" fill="#114761" d="M1173.6 530.2l-82.7 89.5h162.9z"/><path opacity=".06" fill="#1383B3" d="M1090.9 619.7l-80.3-89.5-82.7 89.5z"/><path opacity=".06" fill="#6EC0E2" d="M1090.9 619.7l82.7-89.5h-163z"/><path opacity=".06" fill="#167297" d="M1173.6 530.2l80.2 89.5 82.7-89.5z"/><path opacity=".06" fill="#114761" d="M115.7 440.7L33 530.2h162.9z"/><path opacity=".06" fill="#1383B3" d="M33 530.2l-80.3-89.5-82.7 89.5z"/><path opacity=".06" fill="#6EC0E2" d="M33 530.2l82.7-89.5h-163z"/><path opacity=".06" fill="#167297" d="M115.7 440.7l80.2 89.5 82.7-89.5z"/><path opacity=".06" fill="#114761" d="M441.6 440.7l-82.8 89.5h163z"/><path opacity=".06" fill="#1383B3" d="M358.8 530.2l-80.2-89.5-82.7 89.5z"/><path opacity=".06" fill="#6EC0E2" d="M358.8 530.2l82.8-89.5h-163z"/><path opacity=".06" fill="#167297" d="M441.6 440.7l80.2 89.5 82.7-89.5z"/><path opacity=".06" fill="#114761" d="M767.4 440.7l-82.7 89.5h163z"/><path opacity=".06" fill="#1383B3" d="M684.7 530.2l-80.2-89.5-82.7 89.5z"/><path opacity=".06" fill="#6EC0E2" d="M684.7 530.2l82.7-89.5H604.5z"/><path opacity=".06" fill="#167297" d="M767.4 440.7l80.3 89.5 82.7-89.5z"/><path opacity=".06" fill="#114761" d="M1093.3 440.7l-82.7 89.5h163z"/><path opacity=".06" fill="#1383B3" d="M1010.6 530.2l-80.2-89.5-82.7 89.5z"/><path opacity=".06" fill="#6EC0E2" d="M1010.6 530.2l82.7-89.5H930.4z"/><path opacity=".06" fill="#167297" d="M1093.3 440.7l80.3 89.5 82.7-89.5z"/><path opacity=".06" fill="#114761" d="M198.4 351.3l-82.7 89.4h162.9z"/><path opacity=".06" fill="#1383B3" d="M115.7 440.7l-80.3-89.4-82.7 89.4z"/><path opacity=".06" fill="#6EC0E2" d="M115.7 440.7l82.7-89.4h-163z"/><path opacity=".06" fill="#167297" d="M198.4 351.3l80.2 89.4 82.7-89.4z"/><path opacity=".06" fill="#114761" d="M524.3 351.3l-82.7 89.4h162.9z"/><path opacity=".06" fill="#1383B3" d="M441.6 440.7l-80.3-89.4-82.7 89.4z"/><path opacity=".06" fill="#6EC0E2" d="M441.6 440.7l82.7-89.4h-163z"/><path opacity=".06" fill="#167297" d="M524.3 351.3l80.2 89.4 82.7-89.4z"/><path opacity=".06" fill="#114761" d="M850.1 351.3l-82.7 89.4h163z"/><path opacity=".06" fill="#1383B3" d="M767.4 440.7l-80.2-89.4-82.7 89.4z"/><path opacity=".06" fill="#6EC0E2" d="M767.4 440.7l82.8-89.4h-163z"/><path opacity=".06" fill="#167297" d="M850.2 351.3l80.2 89.4 82.7-89.4z"/><path opacity=".06" fill="#114761" d="M1176 351.3l-82.7 89.4h163z"/><path opacity=".06" fill="#1383B3" d="M1093.3 440.7l-80.2-89.4-82.7 89.4z"/><path opacity=".06" fill="#6EC0E2" d="M1093.3 440.7l82.7-89.4h-162.9z"/><path opacity=".06" fill="#167297" d="M1176 351.3l80.3 89.4 82.7-89.4z"/><path opacity=".06" fill="#114761" d="M118.1 261.8l-82.7 89.5h163z"/><path opacity=".06" fill="#1383B3" d="M35.4 351.3l-80.2-89.5-82.7 89.5z"/><path opacity=".06" fill="#6EC0E2" d="M35.4 351.3l82.7-89.5H-44.8z"/><path opacity=".06" fill="#167297" d="M118.1 261.8l80.3 89.5 82.7-89.5z"/><path opacity=".06" fill="#114761" d="M444 261.8l-82.7 89.5h163z"/><path opacity=".06" fill="#1383B3" d="M361.3 351.3l-80.2-89.5-82.7 89.5z"/><path opacity=".06" fill="#6EC0E2" d="M361.3 351.3l82.7-89.5H281.1z"/><path opacity=".06" fill="#167297" d="M444 261.8l80.3 89.5 82.7-89.5z"/><path opacity=".06" fill="#114761" d="M769.9 261.8l-82.7 89.5h162.9z"/><path opacity=".06" fill="#1383B3" d="M687.2 351.3L607 261.8l-82.7 89.5z"/><path opacity=".06" fill="#6EC0E2" d="M687.2 351.3l82.7-89.5H607z"/><path opacity=".06" fill="#167297" d="M769.9 261.8l80.2 89.5 82.8-89.5z"/><path opacity=".06" fill="#114761" d="M1095.8 261.8l-82.7 89.5H1176z"/><path opacity=".06" fill="#1383B3" d="M1013.1 351.3l-80.2-89.5-82.7 89.5z"/><path opacity=".06" fill="#6EC0E2" d="M1013.1 351.3l82.7-89.5H932.9z"/><path opacity=".06" fill="#167297" d="M1095.8 261.8l80.2 89.5 82.7-89.5z"/><path opacity=".06" fill="#114761" d="M200.8 172.3l-82.7 89.5h163z"/><path opacity=".06" fill="#1383B3" d="M118.1 261.8l-80.2-89.5-82.7 89.5z"/><path opacity=".06" fill="#6EC0E2" d="M118.1 261.8l82.7-89.5H37.9z"/><path opacity=".06" fill="#167297" d="M200.8 172.3l80.3 89.5 82.7-89.5z"/><path opacity=".06" fill="#114761" d="M526.7 172.3L444 261.8h163z"/><path opacity=".06" fill="#1383B3" d="M444 261.8l-80.2-89.5-82.7 89.5z"/><path opacity=".06" fill="#6EC0E2" d="M444 261.8l82.7-89.5H363.8z"/><path opacity=".06" fill="#167297" d="M526.7 172.3l80.3 89.5 82.7-89.5z"/><path opacity=".06" fill="#114761" d="M852.6 172.3l-82.7 89.5h163z"/><path opacity=".06" fill="#1383B3" d="M769.9 261.8l-80.2-89.5-82.7 89.5z"/><path opacity=".06" fill="#6EC0E2" d="M769.9 261.8l82.7-89.5H689.7z"/><path opacity=".06" fill="#167297" d="M852.6 172.3l80.3 89.5 82.7-89.5z"/><path opacity=".06" fill="#114761" d="M1178.5 172.3l-82.7 89.5h162.9z"/><path opacity=".06" fill="#1383B3" d="M1095.8 261.8l-80.2-89.5-82.7 89.5z"/><path opacity=".06" fill="#6EC0E2" d="M1095.8 261.8l82.7-89.5h-162.9z"/><path opacity=".06" fill="#167297" d="M1178.5 172.3l80.2 89.5 82.8-89.5z"/><path opacity=".06" fill="#114761" d="M120.6 82.8l-82.7 89.5h162.9z"/><path opacity=".06" fill="#1383B3" d="M37.9 172.3l-80.2-89.5-82.7 89.5z"/><path opacity=".06" fill="#6EC0E2" d="M37.9 172.3l82.7-89.5H-42.3z"/><path opacity=".06" fill="#167297" d="M120.6 82.8l80.2 89.5 82.7-89.5z"/><path opacity=".06" fill="#114761" d="M446.5 82.8l-82.7 89.5h162.9z"/><path opacity=".06" fill="#1383B3" d="M363.8 172.3l-80.2-89.5-82.8 89.5z"/><path opacity=".06" fill="#6EC0E2" d="M363.8 172.3l82.7-89.5H283.6z"/><path opacity=".06" fill="#167297" d="M446.5 82.8l80.2 89.5 82.7-89.5z"/><path opacity=".06" fill="#114761" d="M772.4 82.8l-82.7 89.5h162.9z"/><path opacity=".06" fill="#1383B3" d="M689.7 172.3l-80.3-89.5-82.7 89.5z"/><path opacity=".06" fill="#6EC0E2" d="M689.7 172.3l82.7-89.5h-163z"/><path opacity=".06" fill="#167297" d="M772.4 82.8l80.2 89.5 82.7-89.5z"/><path opacity=".06" fill="#114761" d="M1098.3 82.8l-82.7 89.5h162.9z"/><path opacity=".06" fill="#1383B3" d="M1015.6 172.3l-80.3-89.5-82.7 89.5z"/><path opacity=".06" fill="#6EC0E2" d="M1015.6 172.3l82.7-89.5h-163z"/><path opacity=".06" fill="#167297" d="M1098.3 82.8l80.2 89.5 82.7-89.5z"/><path opacity=".06" fill="#114761" d="M1411.8 977.7l-82.7 89.5h163z"/><path opacity=".06" fill="#1383B3" d="M1329.1 1067.2l-80.2-89.5-82.7 89.5z"/><path opacity=".06" fill="#6EC0E2" d="M1329.1 1067.2l82.7-89.5h-162.9z"/><path opacity=".06" fill="#167297" d="M1411.8 977.7l80.3 89.5 82.7-89.5z"/><path opacity=".06" fill="#114761" d="M1737.7 977.7l-82.7 89.5h162.9z"/><path opacity=".06" fill="#1383B3" d="M1655 1067.2l-80.2-89.5-82.7 89.5z"/><path opacity=".06" fill="#6EC0E2" d="M1655 1067.2l82.7-89.5h-162.9z"/><path opacity=".06" fill="#167297" d="M1737.7 977.7l80.2 89.5 82.7-89.5z"/><path opacity=".06" fill="#1383B3" d="M1980.9 1067.2l-80.3-89.5-82.7 89.5z"/><path opacity=".06" fill="#6EC0E2" d="M1980.9 1067.2l82.7-89.5h-163z"/><path opacity=".06" fill="#114761" d="M1494.5 888.2l-82.7 89.5h163z"/><path opacity=".06" fill="#1383B3" d="M1411.8 977.7l-80.2-89.5-82.7 89.5z"/><path opacity=".06" fill="#6EC0E2" d="M1411.8 977.7l82.7-89.5h-162.9z"/><path opacity=".06" fill="#167297" d="M1494.5 888.2l80.3 89.5 82.7-89.5z"/><path opacity=".06" fill="#114761" d="M1820.4 888.2l-82.7 89.5h162.9z"/><path opacity=".06" fill="#1383B3" d="M1737.7 977.7l-80.2-89.5-82.7 89.5z"/><path opacity=".06" fill="#6EC0E2" d="M1737.7 977.7l82.7-89.5h-162.9z"/><path opacity=".06" fill="#167297" d="M1820.4 888.2l80.2 89.5 82.8-89.5z"/><path opacity=".06" fill="#114761" d="M1414.3 798.7l-82.7 89.5h162.9z"/><path opacity=".06" fill="#1383B3" d="M1331.6 888.2l-80.3-89.5-82.7 89.5z"/><path opacity=".06" fill="#6EC0E2" d="M1331.6 888.2l82.7-89.5h-163z"/><path opacity=".06" fill="#167297" d="M1414.3 798.7l80.2 89.5 82.7-89.5z"/><path opacity=".06" fill="#114761" d="M1740.2 798.7l-82.7 89.5h162.9z"/><path opacity=".06" fill="#1383B3" d="M1657.5 888.2l-80.3-89.5-82.7 89.5z"/><path opacity=".06" fill="#6EC0E2" d="M1657.5 888.2l82.7-89.5h-163z"/><path opacity=".06" fill="#167297" d="M1740.2 798.7l80.2 89.5 82.7-89.5z"/><path opacity=".06" fill="#1383B3" d="M1983.4 888.2l-80.3-89.5-82.7 89.5z"/><path opacity=".06" fill="#6EC0E2" d="M1983.4 888.2l82.7-89.5h-163z"/><path opacity=".06" fill="#114761" d="M1497 709.2l-82.7 89.5h162.9z"/><path opacity=".06" fill="#1383B3" d="M1414.3 798.7l-80.3-89.5-82.7 89.5z"/><path opacity=".06" fill="#6EC0E2" d="M1414.3 798.7l82.7-89.5h-163z"/><path opacity=".06" fill="#167297" d="M1497 709.2l80.2 89.5 82.7-89.5z"/><path opacity=".06" fill="#114761" d="M1822.9 709.2l-82.7 89.5h162.9z"/><path opacity=".06" fill="#1383B3" d="M1740.2 798.7l-80.3-89.5-82.7 89.5z"/><path opacity=".06" fill="#6EC0E2" d="M1740.2 798.7l82.7-89.5h-163z"/><path opacity=".06" fill="#167297" d="M1822.9 709.2l80.2 89.5 82.7-89.5z"/><path opacity=".06" fill="#114761" d="M1416.8 619.7l-82.8 89.5h163z"/><path opacity=".06" fill="#1383B3" d="M1334 709.2l-80.2-89.5-82.7 89.5z"/><path opacity=".06" fill="#6EC0E2" d="M1334 709.2l82.8-89.5h-163z"/><path opacity=".06" fill="#167297" d="M1416.8 619.7l80.2 89.5 82.7-89.5z"/><path opacity=".06" fill="#114761" d="M1742.6 619.7l-82.7 89.5h163z"/><path opacity=".06" fill="#1383B3" d="M1659.9 709.2l-80.2-89.5-82.7 89.5z"/><path opacity=".06" fill="#6EC0E2" d="M1659.9 709.2l82.7-89.5h-162.9z"/><path opacity=".06" fill="#167297" d="M1742.6 619.7l80.3 89.5 82.7-89.5z"/><path opacity=".06" fill="#1383B3" d="M1985.8 709.2l-80.2-89.5-82.7 89.5z"/><path opacity=".06" fill="#6EC0E2" d="M1985.8 709.2l82.7-89.5h-162.9z"/><path opacity=".06" fill="#114761" d="M1499.5 530.2l-82.7 89.5h162.9z"/><path opacity=".06" fill="#1383B3" d="M1416.8 619.7l-80.3-89.5-82.7 89.5z"/><path opacity=".06" fill="#6EC0E2" d="M1416.8 619.7l82.7-89.5h-163z"/><path opacity=".06" fill="#167297" d="M1499.5 530.2l80.2 89.5 82.7-89.5z"/><path opacity=".06" fill="#114761" d="M1825.4 530.2l-82.8 89.5h163z"/><path opacity=".06" fill="#1383B3" d="M1742.6 619.7l-80.2-89.5-82.7 89.5z"/><path opacity=".06" fill="#6EC0E2" d="M1742.6 619.7l82.8-89.5h-163z"/><path opacity=".06" fill="#167297" d="M1825.4 530.2l80.2 89.5 82.7-89.5z"/><path opacity=".06" fill="#114761" d="M1419.2 440.7l-82.7 89.5h163z"/><path opacity=".06" fill="#1383B3" d="M1336.5 530.2l-80.2-89.5-82.7 89.5z"/><path opacity=".06" fill="#6EC0E2" d="M1336.5 530.2l82.7-89.5h-162.9z"/><path opacity=".06" fill="#167297" d="M1419.2 440.7l80.3 89.5 82.7-89.5z"/><path opacity=".06" fill="#114761" d="M1745.1 440.7l-82.7 89.5h162.9z"/><path opacity=".06" fill="#1383B3" d="M1662.4 530.2l-80.2-89.5-82.7 89.5z"/><path opacity=".06" fill="#6EC0E2" d="M1662.4 530.2l82.7-89.5h-162.9z"/><path opacity=".06" fill="#167297" d="M1745.1 440.7l80.2 89.5 82.8-89.5z"/><path opacity=".06" fill="#1383B3" d="M1988.3 530.2l-80.2-89.5-82.8 89.5z"/><path opacity=".06" fill="#6EC0E2" d="M1988.3 530.2l82.7-89.5h-162.9z"/><path opacity=".06" fill="#114761" d="M1501.9 351.3l-82.7 89.4h163z"/><path opacity=".06" fill="#1383B3" d="M1419.2 440.7l-80.2-89.4-82.7 89.4z"/><path opacity=".06" fill="#6EC0E2" d="M1419.2 440.7l82.7-89.4H1339z"/><path opacity=".06" fill="#167297" d="M1501.9 351.3l80.3 89.4 82.7-89.4z"/><path opacity=".06" fill="#114761" d="M1827.8 351.3l-82.7 89.4h163z"/><path opacity=".06" fill="#1383B3" d="M1745.1 440.7l-80.2-89.4-82.7 89.4z"/><path opacity=".06" fill="#6EC0E2" d="M1745.1 440.7l82.7-89.4h-162.9z"/><path opacity=".06" fill="#167297" d="M1827.8 351.3l80.3 89.4 82.7-89.4z"/><path opacity=".06" fill="#114761" d="M1421.7 261.8l-82.7 89.5h162.9z"/><path opacity=".06" fill="#1383B3" d="M1339 351.3l-80.3-89.5-82.7 89.5z"/><path opacity=".06" fill="#6EC0E2" d="M1339 351.3l82.7-89.5h-163z"/><path opacity=".06" fill="#167297" d="M1421.7 261.8l80.2 89.5 82.7-89.5z"/><path opacity=".06" fill="#114761" d="M1747.6 261.8l-82.7 89.5h162.9z"/><path opacity=".06" fill="#1383B3" d="M1664.9 351.3l-80.3-89.5-82.7 89.5z"/><path opacity=".06" fill="#6EC0E2" d="M1664.9 351.3l82.7-89.5h-163z"/><path opacity=".06" fill="#167297" d="M1747.6 261.8l80.2 89.5 82.7-89.5z"/><path opacity=".06" fill="#1383B3" d="M1990.8 351.3l-80.3-89.5-82.7 89.5z"/><path opacity=".06" fill="#6EC0E2" d="M1990.8 351.3l82.7-89.5h-163z"/><path opacity=".06" fill="#114761" d="M1504.4 172.3l-82.7 89.5h162.9z"/><path opacity=".06" fill="#1383B3" d="M1421.7 261.8l-80.2-89.5-82.8 89.5z"/><path opacity=".06" fill="#6EC0E2" d="M1421.7 261.8l82.7-89.5h-162.9z"/><path opacity=".06" fill="#167297" d="M1504.4 172.3l80.2 89.5 82.7-89.5z"/><path opacity=".06" fill="#114761" d="M1830.3 172.3l-82.7 89.5h162.9z"/><path opacity=".06" fill="#1383B3" d="M1747.6 261.8l-80.3-89.5-82.7 89.5z"/><path opacity=".06" fill="#6EC0E2" d="M1747.6 261.8l82.7-89.5h-163z"/><path opacity=".06" fill="#167297" d="M1830.3 172.3l80.2 89.5 82.7-89.5z"/><path opacity=".06" fill="#114761" d="M1424.2 82.8l-82.7 89.5h162.9z"/><path opacity=".06" fill="#1383B3" d="M1341.5 172.3l-80.3-89.5-82.7 89.5z"/><path opacity=".06" fill="#6EC0E2" d="M1341.5 172.3l82.7-89.5h-163z"/><path opacity=".06" fill="#167297" d="M1424.2 82.8l80.2 89.5 82.7-89.5z"/><path opacity=".06" fill="#114761" d="M1750.1 82.8l-82.8 89.5h163z"/><path opacity=".06" fill="#1383B3" d="M1667.3 172.3l-80.2-89.5-82.7 89.5z"/><path opacity=".06" fill="#6EC0E2" d="M1667.3 172.3l82.8-89.5h-163z"/><path opacity=".06" fill="#167297" d="M1750.1 82.8l80.2 89.5 82.7-89.5z"/><path opacity=".06" fill="#1383B3" d="M1993.2 172.3L1913 82.8l-82.7 89.5z"/><path opacity=".06" fill="#6EC0E2" d="M1993.2 172.3l82.7-89.5H1913z"/><path opacity=".06" fill="#114761" d="M203.3-6.7l-82.7 89.5h162.9z"/><path opacity=".06" fill="#1383B3" d="M120.6 82.8L40.4-6.7l-82.7 89.5z"/><path opacity=".06" fill="#6EC0E2" d="M120.6 82.8l82.7-89.5H40.4z"/><path opacity=".06" fill="#167297" d="M203.3-6.7l80.2 89.5 82.8-89.5z"/><path opacity=".06" fill="#114761" d="M529.2-6.7l-82.7 89.5h162.9z"/><path opacity=".06" fill="#1383B3" d="M446.5 82.8L366.3-6.7l-82.7 89.5z"/><path opacity=".06" fill="#6EC0E2" d="M446.5 82.8l82.7-89.5H366.3z"/><path opacity=".06" fill="#167297" d="M529.2-6.7l80.2 89.5 82.7-89.5z"/><path opacity=".06" fill="#114761" d="M855.1-6.7l-82.7 89.5h162.9z"/><path opacity=".06" fill="#1383B3" d="M772.4 82.8L692.1-6.7l-82.7 89.5z"/><path opacity=".06" fill="#6EC0E2" d="M772.4 82.8l82.7-89.5h-163z"/><path opacity=".06" fill="#167297" d="M855.1-6.7l80.2 89.5L1018-6.7z"/><path opacity=".06" fill="#114761" d="M1181-6.7l-82.7 89.5h162.9z"/><path opacity=".06" fill="#1383B3" d="M1098.3 82.8L1018-6.7l-82.7 89.5z"/><path opacity=".06" fill="#6EC0E2" d="M1098.3 82.8L1181-6.7h-163z"/><path opacity=".06" fill="#167297" d="M1181-6.7l80.2 89.5 82.7-89.5z"/><path opacity=".06" fill="#114761" d="M1506.9-6.7l-82.7 89.5h162.9z"/><path opacity=".06" fill="#1383B3" d="M1424.2 82.8l-80.3-89.5-82.7 89.5z"/><path opacity=".06" fill="#6EC0E2" d="M1424.2 82.8l82.7-89.5h-163z"/><path opacity=".06" fill="#167297" d="M1506.9-6.7l80.2 89.5 82.7-89.5z"/><path opacity=".06" fill="#114761" d="M1832.8-6.7l-82.7 89.5H1913z"/><path opacity=".06" fill="#1383B3" d="M1750.1 82.8l-80.3-89.5-82.7 89.5z"/><path opacity=".06" fill="#6EC0E2" d="M1750.1 82.8l82.7-89.5h-163z"/><path opacity=".06" fill="#167297" d="M1832.8-6.7l80.2 89.5 82.7-89.5z"/></svg>