<svg xmlns="http://www.w3.org/2000/svg" width="300" height="300" viewBox="0 0 300 300"><path fill="#FFF" d="M238.8 154.5c-.3 4.4-.3 7.8-.8 11.2-3.8 25.5-14.9 47-34.4 64-22.6 19.7-49 28-78.7 24.9-26.5-2.7-48.9-14.3-66.4-34.5-22.5-26-30.2-56.1-23.3-89.6 5.4-26.3 19.5-47.4 41.6-62.6 27.8-19.1 58.2-23.5 90.5-13.7 14.8 4.5 27.7 12.5 39.1 22.9 5.7 5.2 12.8 5.2 17.3.1 4.3-4.9 3.8-12.1-1.9-16.8-6.9-5.7-14-11.4-21.5-16.2-16.6-10.6-35.2-15.8-54.6-17.6-14.8-1.4-29.3.3-43.6 4.3C80.4 36.9 61.6 48 46 64c-17.2 17.6-28.5 38.6-33.5 62.9-3.9 18.8-3.5 37.4 1.2 55.9 6.6 26.2 20.2 48.3 41 65.5 32.7 27.1 70 35.8 111.2 26.2 24.9-5.8 46-18.7 63.2-37.6 15.2-16.7 25.4-36.1 29.9-58.3 1.5-7.7 2.4-15.6 3.7-24.1 3.7 3.9 7.1 7.5 10.7 11 5.1 5 12 5.1 16.7.4 4.5-4.5 4.5-11.4-.4-16.4-10.1-10.3-20.4-20.5-30.6-30.7-5.3-5.2-11.7-5.2-16.9-.1-10.3 10.1-20.5 20.4-30.6 30.7-1.5 1.5-2.8 3.6-3.4 5.7-1.4 4.8.8 9.8 4.9 12.4 4.3 2.7 9.7 2.3 13.6-1.2 3.8-3.6 7.6-7.4 12.1-11.8zm-114.4-36.6c0 10.6.1 21.2-.1 31.8-.1 4.2 1.1 7.7 3.5 11.1 8.8 12.2 17.6 24.5 26.4 36.8.7 1 1.4 1.9 2.3 2.7 3.2 3.2 7.1 4.1 11.4 2.8 4.3-1.3 6.9-4.2 7.8-8.7.9-4-.7-7.2-2.9-10.3-7.8-10.7-15.7-21.3-23.3-32.1-1.2-1.7-1.9-4.1-2-6.1-.1-20.3-.1-40.5-.1-60.8 0-7.8-4.5-12.9-11.4-13-6.9-.1-11.5 5-11.5 12.8-.1 11-.1 22-.1 33z"/><path d="M238.8 154.5c-4.5 4.4-8.3 8.2-12.2 11.8-3.9 3.5-9.4 3.9-13.6 1.2-4.2-2.6-6.4-7.6-4.9-12.4.6-2.1 1.9-4.2 3.4-5.7 10.1-10.3 20.3-20.5 30.6-30.7 5.3-5.2 11.6-5.2 16.9.1 10.3 10.1 20.5 20.4 30.6 30.7 4.9 4.9 4.9 11.8.4 16.4-4.7 4.7-11.5 4.6-16.7-.4-3.6-3.5-6.9-7.1-10.7-11-1.3 8.6-2.2 16.4-3.7 24.1-4.4 22.2-14.7 41.6-29.9 58.3-17.2 18.9-38.3 31.9-63.2 37.6-41.2 9.5-78.5.8-111.2-26.2-20.8-17.3-34.4-39.3-41-65.5-4.7-18.5-5.1-37.1-1.2-55.9 5-24.3 16.2-45.3 33.5-62.9C61.5 48 80.3 36.9 102 30.9c14.3-4 28.9-5.7 43.6-4.3 19.5 1.8 38 7 54.6 17.6 7.5 4.8 14.6 10.5 21.5 16.2 5.7 4.7 6.3 11.9 1.9 16.8-4.4 5.1-11.5 5.1-17.3-.1-11.4-10.4-24.2-18.4-39.1-22.9-32.3-9.8-62.7-5.5-90.5 13.7-22 15.1-36.1 36.3-41.5 62.6-6.9 33.5.8 63.6 23.3 89.6 17.5 20.2 39.9 31.8 66.4 34.5 29.6 3 56.1-5.3 78.7-24.9 19.5-17 30.7-38.5 34.4-64 .5-3.4.5-6.8.8-11.2z"/><path d="M124.4 117.9v-33c0-7.8 4.6-12.9 11.5-12.8 6.9.1 11.4 5.1 11.4 13 0 20.3-.1 40.5.1 60.8 0 2.1.8 4.5 2 6.1 7.7 10.8 15.5 21.4 23.3 32.1 2.2 3.1 3.8 6.3 2.9 10.3-1 4.4-3.6 7.4-7.8 8.7-4.2 1.2-8.1.3-11.4-2.8-.8-.8-1.6-1.8-2.3-2.7-8.8-12.3-17.5-24.6-26.4-36.8-2.4-3.4-3.6-6.9-3.5-11.1.3-10.6.2-21.2.2-31.8z"/></svg>