<svg xmlns="http://www.w3.org/2000/svg" width="300" height="300" viewBox="0 0 300 300"><path d="M172.9 48.6h19V24.4c0-2.5-.1-5 .1-7.5.3-3.8 2.4-6 6.2-6 3.8 0 6.1 2.3 6.2 6 .2 7.6.1 15.2.1 22.8v8.7h19V19.1c0-5.5 2.2-8.3 6.2-8.4 4.1-.1 6.3 2.8 6.4 8.2v25c0 1.4.1 2.9.2 4.2 11.7 1.6 14.6 4.2 16.2 16.4h26.2c1.6 0 3.2-.1 4.8 0 3.9.2 6.5 2.8 6.4 6.3 0 3.5-2.6 6.1-6.6 6.2-9.2.1-18.5 0-27.7.1-1 0-2 .1-3.4.2v18.9h30.1c4.7.1 7.4 2.4 7.5 6.1.1 3.9-2.8 6.4-7.7 6.4-8.6.1-17.3 0-25.9 0-1.3 0-2.6.1-4.1.2v18.6c1.3.1 2.7.2 4.1.2h23.7c7 0 10 2 9.9 6.4-.1 4.3-3 6.2-9.7 6.2h-28v19h30.2c4.7.1 7.4 2.4 7.5 6.2 0 3.8-2.7 6.3-7.3 6.3-8.5.1-17 0-25.5 0h-5v18.8c1.5.1 3.1.2 4.6.2h25.9c4.6 0 7.3 2.6 7.2 6.4-.1 3.6-2.8 6.1-7.1 6.1-10.1.1-20.2 0-30.6 0v19h24.6c2.2 0 4.4-.1 6.6 0 4 .2 6.5 2.7 6.5 6.2s-2.5 6.2-6.5 6.3c-8.8.1-17.6.1-26.4.1h-4.6c-2.4 12.7-4.5 14.8-16.2 16.1-.1 1.3-.2 2.7-.2 4.1v24.2c0 6.5-2.1 9.6-6.4 9.5-4.2-.1-6.2-3-6.2-9.3v-28.4h-19v16.2c0 4.7.1 9.4 0 14.1-.1 4.7-2.4 7.4-6.2 7.5-3.8 0-6.3-2.7-6.3-7.3-.1-8.5 0-17 0-25.5v-5h-18.8c-.1 1.5-.2 3.1-.2 4.6v25.9c0 4.6-2.6 7.3-6.5 7.2-3.6-.1-6.1-2.8-6.1-7.1-.1-10.1 0-20.2 0-30.6h-19v25c0 2.1.1 4.1 0 6.1-.2 4-2.7 6.5-6.3 6.5-3.5 0-6.2-2.5-6.3-6.5-.1-9.4 0-18.7-.1-28.1 0-.9-.1-1.7-.2-3h-18.9v8.5c0 7.5.1 14.9 0 22.4-.1 4-2.5 6.6-6.1 6.7-3.7.1-6.4-2.5-6.5-6.7-.1-8.6 0-17.3 0-25.9V251h-19v27.7c0 7-1.9 10-6.3 10s-6.2-3-6.2-10.1c0-8.8 0-17.6-.1-26.4 0-.3-.1-.6-.3-1.3-9.8-.2-15.8-4.8-15.5-16.2H44c-8.5 0-17 .1-25.5 0-4.6 0-7.5-2.6-7.5-6.3 0-3.7 2.9-6.2 7.5-6.2 8.5-.1 17 0 25.5 0h5v-18.8c-1.5-.1-3-.2-4.6-.2H18.5c-4.6 0-7.5-2.6-7.5-6.3 0-3.7 2.9-6.2 7.5-6.3 8.5-.1 17 0 25.5 0h5v-18.8c-1.3-.1-2.7-.2-4.1-.2H20.3c-6.1 0-9.2-2-9.3-6.2-.1-4.2 3.1-6.4 9.5-6.4h28.4v-19H29.7c-3.8 0-7.6.1-11.4 0-4.5-.1-7.4-2.8-7.3-6.5.1-3.5 2.9-6 7.2-6.1 9.4-.1 18.7 0 28.1 0 .7 0 1.4-.1 2.5-.2v-18.8H36.7c-6.2 0-12.3.1-18.5 0-4.5-.1-7.4-2.8-7.3-6.4.1-3.5 2.9-6 7.2-6.1 8.5-.1 17 0 25.5 0h5.2v-19H38c-6.9 0-13.8.1-20.6-.1-3.8-.1-6.5-2.9-6.5-6.3s2.7-6.1 6.6-6.2c8.8-.1 17.6-.1 26.4-.1h3.8c1.9-4.5 2.7-9 5.4-11.8 2.7-2.7 7.2-3.6 11.9-5.8V24.8c0-2.6-.1-5.3.1-7.9.2-4.1 2.7-6.6 6.2-6.5 3.6 0 6.2 2.5 6.3 6.5.4 9.3.4 18.3.4 27.2v4.3h19V20.1c0-6.3 2-9.2 6.2-9.3 4.3-.1 6.4 2.9 6.4 9.1v24.2c0 1.4.1 2.9.2 4.5h18.8v-6c0-8.2-.1-16.4 0-24.6.1-4.4 2.4-7.1 6-7.2 3.8-.1 6.4 2.6 6.5 7.2.1 8.5 0 17 0 25.5v5h18.8c.1-1.3.2-2.7.2-4.1V20.2c0-6.6 2.1-9.6 6.4-9.5 4.2.1 6.2 3 6.2 9.3.2 9.4.2 18.8.2 28.6zm66.2 13.1H62.4v176.6h176.7V61.7z"/><path d="M89.4 147.8c0-2.2.8-4.4 2.5-6.1l34.4-34.4c3.4-3.4 8.8-3.4 12.2 0 3.4 3.4 3.4 8.8 0 12.2l-28.3 28.3 28.3 28.3c3.4 3.4 3.4 8.8 0 12.2-3.4 3.4-8.8 3.4-12.2 0l-34.4-34.4c-1.6-1.7-2.5-3.9-2.5-6.1zm123.8 0c0 2.2-.8 4.4-2.5 6.1l-34.4 34.4c-3.4 3.4-8.8 3.4-12.2 0-3.4-3.4-3.4-8.8 0-12.2l28.3-28.3-28.3-28.3c-3.4-3.4-3.4-8.8 0-12.2 3.4-3.4 8.8-3.4 12.2 0l34.4 34.4c1.6 1.7 2.5 3.9 2.5 6.1z"/></svg>