<?xml version="1.0" encoding="UTF-8"?>
<svg width="400px" height="60px" viewBox="0 0 400 60" version="1.1" xmlns="http://www.w3.org/2000/svg" xmlns:xlink="http://www.w3.org/1999/xlink">
    <!-- Generator: Sketch 52.3 (67297) - http://www.bohemiancoding.com/sketch -->
    <title>HPE_Only</title>
    <desc>Created with Sketch.</desc>
    <g id="Page-1" stroke="none" stroke-width="1" fill="none" fill-rule="evenodd">
        <path d="M21.216,18.472 L24.544,18.472 L24.544,38.12 L21.216,38.12 L21.216,29.512 L11.328,29.512 L11.328,38.12 L8,38.12 L8,18.472 L11.328,18.472 L11.328,26.568 L21.216,26.568 L21.216,18.472 Z M36.48,30.792 L32.224,30.792 L32.224,38.12 L28.896,38.12 L28.896,18.472 L36.48,18.472 C40.544,18.472 43.2,20.584 43.2,24.648 C43.2,28.648 40.544,30.792 36.48,30.792 Z M39.904,24.648 C39.904,22.696 38.72,21.352 36.416,21.352 L32.224,21.352 L32.224,27.912 L36.416,27.912 C38.72,27.912 39.904,26.536 39.904,24.648 Z M46.336,18.472 L59.168,18.472 L59.168,21.416 L49.6,21.416 L49.6,26.6 L58.272,26.6 L58.272,29.512 L49.6,29.512 L49.6,35.144 L59.168,35.144 L59.168,38.12 L46.336,38.12 L46.336,18.472 Z M69.856,18.472 L82.688,18.472 L82.688,21.416 L73.12,21.416 L73.12,26.6 L81.792,26.6 L81.792,29.512 L73.12,29.512 L73.12,35.144 L82.688,35.144 L82.688,38.12 L69.856,38.12 L69.856,18.472 Z M95.328,38.12 L95.328,36.904 C94.688,37.704 93.28,38.44 91.712,38.44 C87.552,38.44 85.12,35.112 85.12,31.016 C85.12,26.952 87.552,23.592 91.712,23.592 C93.28,23.592 94.688,24.328 95.328,25.128 L95.328,17.32 L98.528,17.32 L98.528,38.12 L95.328,38.12 Z M95.328,33.704 L95.328,28.328 C94.784,27.208 93.568,26.44 92.256,26.44 C89.792,26.44 88.32,28.392 88.32,31.016 C88.32,33.64 89.792,35.592 92.256,35.592 C93.568,35.592 94.784,34.824 95.328,33.704 Z M111.648,37.16 L111.648,36.712 C111.008,37.48 109.664,38.184 108.064,38.184 C103.872,38.184 101.504,34.696 101.504,30.888 C101.504,27.08 103.872,23.592 108.064,23.592 C109.664,23.592 111.008,24.296 111.648,25.064 L111.648,23.912 L114.848,23.912 L114.848,36.936 C114.848,42.12 110.912,43.88 107.552,43.88 C105.664,43.88 103.968,43.4 102.816,42.664 L102.816,39.272 C104.288,40.584 105.76,41.064 107.552,41.064 C109.824,41.064 111.648,39.72 111.648,37.16 Z M111.648,33.672 L111.648,28.104 C111.104,27.144 109.952,26.408 108.608,26.408 C106.144,26.408 104.736,28.296 104.736,30.888 C104.736,33.48 106.144,35.368 108.608,35.368 C109.952,35.368 111.104,34.632 111.648,33.672 Z M130.336,31.72 L120.928,31.72 C121.152,34.504 123.04,35.688 125.312,35.688 C126.912,35.688 128.032,35.304 129.376,34.376 L129.376,37.192 C128.16,38.088 126.656,38.44 124.864,38.44 C120.704,38.44 117.824,35.624 117.824,31.144 C117.824,26.696 120.544,23.592 124.352,23.592 C128.288,23.592 130.336,26.408 130.336,30.568 L130.336,31.72 Z M124.384,26.28 C122.976,26.28 121.6,27.112 121.12,29.288 L127.296,29.288 C127.2,27.56 126.208,26.28 124.384,26.28 Z M136.576,17.32 L136.576,38.12 L133.376,38.12 L133.376,17.32 L136.576,17.32 Z M143.744,23.912 L143.744,38.12 L140.544,38.12 L140.544,23.912 L143.744,23.912 Z M144.128,19.624 C144.128,20.712 143.2,21.576 142.144,21.576 C141.088,21.576 140.16,20.712 140.16,19.624 C140.16,18.536 141.088,17.672 142.144,17.672 C143.2,17.672 144.128,18.536 144.128,19.624 Z M147.712,38.12 L147.712,23.912 L150.912,23.912 L150.912,25.256 C151.68,24.36 153.088,23.592 154.752,23.592 C157.984,23.592 159.776,25.736 159.776,28.872 L159.776,38.12 L156.576,38.12 L156.576,29.416 C156.576,27.656 155.712,26.504 153.888,26.504 C152.512,26.504 151.264,27.368 150.912,28.776 L150.912,38.12 L147.712,38.12 Z M175.072,31.72 L165.664,31.72 C165.888,34.504 167.776,35.688 170.048,35.688 C171.648,35.688 172.768,35.304 174.112,34.376 L174.112,37.192 C172.896,38.088 171.392,38.44 169.6,38.44 C165.44,38.44 162.56,35.624 162.56,31.144 C162.56,26.696 165.28,23.592 169.088,23.592 C173.024,23.592 175.072,26.408 175.072,30.568 L175.072,31.72 Z M169.12,26.28 C167.712,26.28 166.336,27.112 165.856,29.288 L172.032,29.288 C171.936,27.56 170.944,26.28 169.12,26.28 Z M202.464,28.296 C202.464,34.152 198.688,38.44 193.376,38.44 C188.064,38.44 184.32,34.152 184.32,28.296 C184.32,22.408 188.064,18.152 193.376,18.152 C198.688,18.152 202.464,22.408 202.464,28.296 Z M199.104,28.296 C199.104,24.136 196.832,21.128 193.376,21.128 C189.92,21.128 187.68,24.136 187.68,28.296 C187.68,32.456 189.92,35.464 193.376,35.464 C196.832,35.464 199.104,32.456 199.104,28.296 Z M204.544,21.416 L204.544,18.472 L220.928,18.472 L220.928,21.416 L214.4,21.416 L214.4,38.12 L211.072,38.12 L211.072,21.416 L204.544,21.416 Z M224.064,38.12 L224.064,18.472 L227.392,18.472 L227.392,35.144 L236.832,35.144 L236.832,38.12 L224.064,38.12 Z M243.232,23.912 L243.232,38.12 L240.032,38.12 L240.032,23.912 L243.232,23.912 Z M243.616,19.624 C243.616,20.712 242.688,21.576 241.632,21.576 C240.576,21.576 239.648,20.712 239.648,19.624 C239.648,18.536 240.576,17.672 241.632,17.672 C242.688,17.672 243.616,18.536 243.616,19.624 Z M247.2,38.12 L247.2,23.912 L250.4,23.912 L250.4,25.256 C251.168,24.36 252.576,23.592 254.24,23.592 C257.472,23.592 259.264,25.736 259.264,28.872 L259.264,38.12 L256.064,38.12 L256.064,29.416 C256.064,27.656 255.2,26.504 253.376,26.504 C252,26.504 250.752,27.368 250.4,28.776 L250.4,38.12 L247.2,38.12 Z M269.376,30.376 L275.872,38.12 L272,38.12 L266.24,31.304 L266.24,38.12 L263.04,38.12 L263.04,17.32 L266.24,17.32 L266.24,29.672 L271.744,23.912 L275.744,23.912 L269.376,30.376 Z M292.704,30.792 L288.448,30.792 L288.448,38.12 L285.12,38.12 L285.12,18.472 L292.704,18.472 C296.768,18.472 299.424,20.584 299.424,24.648 C299.424,28.648 296.768,30.792 292.704,30.792 Z M296.128,24.648 C296.128,22.696 294.944,21.352 292.64,21.352 L288.448,21.352 L288.448,27.912 L292.64,27.912 C294.944,27.912 296.128,26.536 296.128,24.648 Z M305.568,17.32 L305.568,38.12 L302.368,38.12 L302.368,17.32 L305.568,17.32 Z M317.408,30.024 L317.408,29.032 C317.408,27.432 316.128,26.504 314.144,26.504 C312.608,26.504 311.36,26.984 310.208,27.752 L310.208,24.808 C311.136,24.136 312.928,23.592 314.72,23.592 C318.4,23.592 320.48,25.576 320.48,28.808 L320.48,38.12 L317.408,38.12 L317.408,37.32 C316.928,37.8 315.52,38.376 313.92,38.376 C311.008,38.376 308.608,36.648 308.608,33.736 C308.608,31.048 311.008,29.16 314.144,29.16 C315.424,29.16 316.832,29.608 317.408,30.024 Z M317.408,34.344 L317.408,33.16 C317.056,32.264 315.808,31.72 314.528,31.72 C313.088,31.72 311.584,32.328 311.584,33.736 C311.584,35.176 313.088,35.784 314.528,35.784 C315.808,35.784 317.056,35.24 317.408,34.344 Z M329.152,26.568 L329.152,38.12 L325.952,38.12 L325.952,26.568 L323.072,26.568 L323.072,23.912 L325.952,23.912 L325.952,20.104 L329.152,20.104 L329.152,23.912 L332.352,23.912 L332.352,26.568 L329.152,26.568 Z M343.008,17.384 L343.008,20.2 C342.528,19.88 341.952,19.752 341.44,19.752 C340.16,19.752 339.36,20.52 339.36,21.928 L339.36,23.912 L342.464,23.912 L342.464,26.568 L339.36,26.568 L339.36,38.12 L336.224,38.12 L336.224,26.568 L333.76,26.568 L333.76,23.912 L336.224,23.912 L336.224,21.704 C336.224,18.664 338.24,17 340.896,17 C341.824,17 342.432,17.128 343.008,17.384 Z M357.824,31.016 C357.824,35.368 355.072,38.44 351.072,38.44 C347.072,38.44 344.32,35.368 344.32,31.016 C344.32,26.664 347.072,23.592 351.072,23.592 C355.072,23.592 357.824,26.664 357.824,31.016 Z M354.624,31.016 C354.624,28.328 353.376,26.344 351.072,26.344 C348.768,26.344 347.52,28.328 347.52,31.016 C347.52,33.704 348.768,35.688 351.072,35.688 C353.376,35.688 354.624,33.704 354.624,31.016 Z M368.736,23.848 L368.736,27.144 C368.288,26.824 367.52,26.664 366.848,26.664 C365.536,26.664 364.32,27.4 364,28.936 L364,38.12 L360.8,38.12 L360.8,23.912 L364,23.912 L364,25.384 C364.544,24.328 365.792,23.592 367.168,23.592 C367.872,23.592 368.512,23.72 368.736,23.848 Z M382.176,25.48 C383.168,24.328 384.48,23.592 386.4,23.592 C389.312,23.592 391.008,25.64 391.008,28.872 L391.008,38.12 L387.808,38.12 L387.808,29.384 C387.808,27.624 387.04,26.472 385.472,26.472 C384.32,26.472 383.232,27.176 382.944,28.584 L382.944,38.12 L379.744,38.12 L379.744,29.384 C379.744,27.624 378.976,26.472 377.408,26.472 C376.256,26.472 375.168,27.176 374.88,28.584 L374.88,38.12 L371.68,38.12 L371.68,23.912 L374.88,23.912 L374.88,25.096 C375.552,24.2 376.832,23.592 378.432,23.592 C380.032,23.592 381.44,24.392 382.176,25.48 Z" id="HPE-Edgeline-OTLink" fill="#FFFFFF"></path>
    </g>
</svg>