<svg id="Layer_1" xmlns="http://www.w3.org/2000/svg" viewBox="-492 1272.7 1020.2 291"><style>.st0{fill:#fff}.st1{fill:none}.st2{enable-background:new}.st3{fill:#f9a121}</style><switch><g><g id="Layer_7"><g id="XMLID_16_"><g id="XMLID_20_"><path id="XMLID_30_" class="st0" d="M-438.4 1447.7c0 10.8 2.3 19.3 7.4 25.1 4.9 5.4 12.2 8.3 22.5 8.3v8.6c-13.3.4-23.4-3-30.3-9.8-7.2-7.2-10.8-18.1-10.8-32.1v-103h11.2v102.9z"/><path id="XMLID_27_" class="st0" d="M-342.7 1388.5c32.3 0 51.1 21.2 51.1 51.4 0 29.7-18 51.3-51.1 51.3-32.7 0-51.1-22.1-51.1-51.3 0-29.2 18.3-51.4 51.1-51.4zm-39.9 51.4c0 25.1 14.9 42.3 39.9 42.3 25.4 0 39.9-16.6 39.9-42.3 0-25.9-15.1-42.3-39.9-42.3-25 0-39.9 17.2-39.9 42.3z"/><path id="XMLID_24_" class="st0" d="M-217.7 1388.5c32.3 0 51.1 21.2 51.1 51.4 0 29.7-18 51.3-51.1 51.3-32.7 0-51.1-22.1-51.1-51.3.1-29.2 18.4-51.4 51.1-51.4zm-39.8 51.4c0 25.1 14.9 42.3 39.9 42.3 25.4 0 39.9-16.6 39.9-42.3 0-25.9-15.1-42.3-39.9-42.3-25.1 0-39.9 17.2-39.9 42.3z"/><path id="XMLID_21_" class="st0" d="M-126.4 1405.6c10.3-13.2 24.3-16.9 35.9-16.9 29.6 0 46.1 20.2 46.1 51.4 0 31.6-14.8 51.1-44.2 51.1-11.6 0-20.6-2.8-37.1-16.8v60.7h-11.2v-144h10.1l.4 14.5zm.8 58.9c16.1 14.9 23.7 17.7 34.7 17.7 25.1 0 35.5-16.1 35.5-42.1 0-24.8-12.6-42.3-37.8-42.3-10.6 0-23.1 3.5-32.3 17.7v49h-.1z"/></g><path id="XMLID_48_" class="st1" d="M-93.5 1374.1H436v151.5H-93.5z"/><g class="st2"><path class="st0" d="M-14.5 1374.1h80.6v20.8H9.8v24.8H65v20.8H9.8v26.5h56.3v21h-80.6v-113.9zm155.7 103.3c-6.5 8.2-15.5 12.6-25.4 12.6-20.8 0-36.5-15.7-36.5-43.2 0-27 15.5-43.4 36.5-43.4 9.7 0 19 4.3 25.4 12.6v-42h21.9v114h-21.9v-10.6zm0-45.3c-3.6-5.5-11.4-9.4-18.8-9.4-12.3 0-20.8 9.7-20.8 24.1 0 14.2 8.5 23.9 20.8 23.9 7.3 0 15.2-3.9 18.8-9.4v-29.2zm51.4 61.3c6.7 7.3 15.4 10.2 25.8 10.2s22.7-4.6 22.7-20.8v-8.4c-6.5 8.2-15.4 13-25.4 13-20.7 0-36.4-14.5-36.4-42 0-27 15.5-42 36.4-42 9.9 0 18.8 4.3 25.4 12.6v-10.6H263v76.8c0 31.4-24.2 39.1-44.6 39.1-14.2 0-25.1-3.2-35.5-12.3l9.7-15.6zm48.5-61.3c-3.6-5.5-11.4-9.4-18.6-9.4-12.3 0-20.8 8.5-20.8 22.7s8.5 22.7 20.8 22.7c7.2 0 15-4.1 18.6-9.4v-26.6zm80.8-28.6c24.6 0 41.3 18.4 41.3 45.4v4.8h-61.3c1.4 10.4 9.7 19.1 23.7 19.1 7.7 0 16.7-3.1 22-8.2l9.6 14c-8.2 7.5-21.2 11.4-34 11.4-25.1 0-44.1-16.9-44.1-43.4.1-23.8 17.7-43.1 42.8-43.1zm-20.3 35.5h40.6c-.5-7.9-6-18.3-20.3-18.3-13.5 0-19.3 10.1-20.3 18.3z"/></g></g><g id="XMLID_1_"><g id="XMLID_9_"><path id="XMLID_13_" class="st3" d="M409 1371.5c3.7 7.4 7.4 14.7 11 22-3 1.5-5.9 3-8.9 4.5-5 2.5-10.2 4.6-15.8 5.3-4.3.6-8.7.6-13-.1-13.8-2.2-24.3-9.3-31.6-21.2-5.6-9.2-7.5-19.2-5.7-29.7 2.6-15.4 11-26.6 25.1-33.4 9.5-4.6 19.6-5.6 29.8-2.9 13.3 3.4 23.1 11.5 29.3 23.8 1.7 3.4 3.4 6.9 5.3 10.5-7.3 3.7-14.7 7.3-22.1 11-1.7-3.4-3.4-6.6-4.9-9.9-2.9-6.1-7.4-10.2-14.1-11.6-8.1-1.7-15 .8-20.1 7.4-5.3 6.7-5.5 16.2-.7 23.3 5.6 8.2 16.3 11 25.2 6.7 3.7-2 7.4-3.8 11.2-5.7zm-18.5-53.3c-9.9.3-16.7 2.2-22.9 6.1-10.6 6.7-17 16.3-19 28.7-1.6 10.2.5 19.8 6.1 28.5 4.2 6.5 9.8 11.4 16.8 14.7 8.1 3.8 16.6 4.9 25.5 3.2 6-1.1 11.2-4 16.5-6.7 1.1-.5 1.2-1.3.6-2.5-1.5-2.9-2.9-5.9-4.4-8.8-.5-1-1-2.1-1.5-3.1-.7-1.2-1.5-1.5-2.5-1-2.2 1.1-4.3 2.2-6.5 3.3-9.4 4.5-21 2.2-27.8-5.6-4.5-5.2-6.5-11.2-5.8-18.1.7-7.2 4.1-12.9 10-17 4.7-3.4 10.1-4.7 15.9-4.1 7.8.9 13.8 4.7 17.9 11.5 1.4 2.4 2.5 4.9 3.8 7.3.7 1.3 1.4 1.6 2.8.9 3.9-1.9 7.7-3.8 11.6-5.8 1.4-.7 1.7-1.5 1-2.9-1-2-2-4.1-3-6.1-8.2-15-20.9-22.2-35.1-22.5z"/><path id="XMLID_10_" class="st3" d="M405.9 1380.9c1.6 3.2 3.1 6.3 4.7 9.4-19.3 12.3-42.8 6.4-53.7-11.6-11.4-18.8-4.3-43.1 15.2-53 17.5-8.9 42.7-3.7 52.9 21.5-1.5.8-3.1 1.6-4.7 2.4-1.5.8-3.1 1.5-4.8 2.4-.7-1.4-1.5-2.6-2.1-4-3.4-7.2-8.9-12.1-16.4-14.4-16.6-5.2-34.2 6.6-34.9 24.8-.7 17.2 15.3 30.7 32.1 27.3 3.7-.7 6.9-2.4 10.2-4 .5-.4.9-.6 1.5-.8zm-50.8-20.8c.1 3.9.9 7.7 2.3 11.4 7 18.2 28.9 26.8 46.2 18.2 1.3-.6 1.7-1.5 1.2-2.4-.5-1-1.3-1.2-2.6-.5-5.7 2.6-11.6 3.5-17.8 2.7-16.6-2.3-28.4-18.4-25.8-34.9 2.6-16.5 17.5-27.1 32.5-25.9 6.6.5 12.4 2.8 17.4 7 3.1 2.6 5.6 5.7 7.5 9.4.6 1.2 1.5 1.6 2.5 1.2.9-.5 1.1-1.5.5-2.7-6.2-12-19.3-19.3-32.8-18.2-17.9 1.5-31.6 16.7-31.1 34.7z"/></g><g id="XMLID_2_"><path id="XMLID_6_" class="st3" d="M440.9 1346.5c-3.7-7.5-7.4-14.8-11.1-22.2 3-1.5 6-3 8.9-4.5 5-2.6 10.3-4.6 15.9-5.3 4.4-.6 8.7-.6 13.1.1 13.9 2.2 24.5 9.4 31.8 21.3 5.6 9.2 7.6 19.3 5.8 29.9-2.6 15.5-11.1 26.8-25.2 33.6-9.6 4.6-19.7 5.6-30 2.9-13.4-3.5-23.2-11.6-29.5-23.9-1.7-3.5-3.5-6.9-5.3-10.6 7.4-3.7 14.7-7.4 22.2-11.1 1.7 3.4 3.4 6.6 5 10 2.9 6.2 7.5 10.3 14.2 11.7 8.2 1.7 15.1-.8 20.3-7.4 5.3-6.7 5.5-16.3.7-23.4-5.6-8.3-16.4-11.1-25.4-6.7-3.8 1.8-7.5 3.7-11.4 5.6zm18.7 53.6c9.9-.3 16.8-2.2 23-6.1 10.6-6.7 17.1-16.4 19.1-28.8 1.6-10.3-.5-19.9-6.2-28.7-4.2-6.5-9.8-11.5-16.9-14.8-8.2-3.9-16.8-4.9-25.7-3.2-6 1.1-11.3 4-16.6 6.7-1.1.5-1.2 1.3-.6 2.5 1.5 3 3 5.9 4.4 8.9.5 1 1 2.1 1.5 3.1.7 1.2 1.5 1.5 2.5 1 2.2-1.1 4.3-2.2 6.5-3.3 9.4-4.6 21.1-2.2 28 5.6 4.6 5.2 6.6 11.3 5.9 18.2-.7 7.2-4.2 12.9-10 17.1-4.8 3.4-10.2 4.8-16 4.1-7.9-.9-13.9-4.7-18-11.5-1.4-2.4-2.6-4.9-3.8-7.4-.7-1.4-1.5-1.6-2.8-.9-3.9 1.9-7.8 3.9-11.7 5.8-1.4.7-1.7 1.5-1 2.9 1 2 2 4.1 3.1 6.1 8.2 15.2 21 22.4 35.3 22.7z"/><path id="XMLID_3_" class="st3" d="M444.1 1337c-1.6-3.2-3.2-6.3-4.7-9.4 19.4-12.4 43.1-6.4 54.1 11.7 11.5 18.9 4.3 43.4-15.3 53.4-17.6 9-43 3.7-53.3-21.7 1.6-.8 3.1-1.6 4.7-2.4 1.6-.8 3.1-1.5 4.8-2.4.7 1.4 1.5 2.7 2.1 4 3.4 7.3 8.9 12.1 16.6 14.5 16.7 5.2 34.4-6.6 35.1-24.9.7-17.3-15.4-30.9-32.4-27.5-3.7.7-6.9 2.4-10.2 4.1l-1.5.6zm51 20.9c-.1-4-.9-7.8-2.4-11.5-7.1-18.3-29-27-46.5-18.3-1.3.6-1.7 1.5-1.2 2.4.5 1 1.3 1.2 2.6.6 5.7-2.7 11.7-3.6 17.9-2.7 16.7 2.3 28.6 18.5 25.9 35.1-2.7 16.6-17.6 27.3-32.7 26-6.6-.5-12.5-2.8-17.6-7.1-3.2-2.6-5.7-5.8-7.6-9.4-.6-1.2-1.5-1.6-2.5-1.2-.9.5-1.1 1.5-.5 2.7 6.2 12.1 19.4 19.4 33 18.3 18.4-1.4 32.2-16.7 31.6-34.9z"/></g></g></g></g></switch></svg>