<svg id="Layer_1" xmlns="http://www.w3.org/2000/svg" viewBox="0 0 2875.8 850.4"><style/><g id="XMLID_628_"><g id="XMLID_629_" fill="#fff"><path id="XMLID_657_" d="M421.2 495.6C483.8 352 546.3 208.4 608.9 64.8c.9-2.1 2.1-4.1 3.1-6.1H375.3c-.9 2.8-1.6 5.7-2.8 8.3-67.7 149.9-135.4 299.8-203.1 449.6-.9 2-1.6 4.1-2.7 6.9H409c4.2-9.5 8.2-18.7 12.2-27.9z"/><path id="XMLID_656_" d="M619.9 575.4c-64.4-.5-128.9-1.1-193.3-1.2-16.7 0-33.5.9-50.1 2.6-26.6 2.7-52.9 7.8-78.8 14.8-41.2 11.1-81.5 24.7-119.1 45.4-22.8 12.5-44.1 27.1-63.3 44.8-21.7 19.9-39.3 42.9-52 69.5-1 2-1 5.3-4.6 5.1v1.4c2-.1 4.1-.3 6.1-.3 128.7.1 257.3.2 386 .2 74.1 0 148.1-.3 222.2-.2 5.6 0 8.7-1.5 10.7-7 4.2-11.1 9-22 13.8-33 19.5-44.5 39.1-88.9 58.6-133.4 1-2.2 1.8-4.5 2.9-7.3-2.8-.2-4.6-.3-6.4-.3-44.2-.3-88.4-.7-132.7-1.1z"/><path id="XMLID_655_" d="M2781.3 645.3c-1.2-8.9-6.6-14.7-14.5-17.7-5.5-2-11.6-3.1-17.4-3.2-17.7-.4-35.3 0-53-.1-7.5 0-13.9 2.5-19.4 7.4-1.3 1.1-2.6 2.1-4.4 3.5-.3-4-.5-7.1-.7-10.6h-62.6c-.5 8.3-.2 16.3-1.5 24.1-3.5 21-7.7 41.9-11.7 62.9-3 15.5-5.3 31.2-13 45.4-.2.3.1.8.2 1.7h74.5c-1.9-9.8-1.2-19 .7-28.3 3.1-15.5 6-31 9-46.6 1.5-7.9 3-15.8 4.8-23.6 1.2-4.9 3.8-9.3 9.4-9.6 9.4-.4 18.8-.5 28.2-.1 5.1.2 7.3 3.3 7.2 8.3-.1 2.7-.6 5.5-1.1 8.2-4.1 21.6-8 43.3-12.5 64.8-1.6 7.5-4.7 14.8-7.2 22.1-.5 1.4-1.2 2.7-1.9 4.2 10.5 1.6 70.2 1.1 74.7-.5-.2-4.4-.7-8.7-.6-13 .2-4.6.8-9.1 1.7-13.6 2.9-15.8 6-31.5 8.9-47.3 1.2-6.5 2.2-13 3.4-19.5v-16.5c-.5-.8-1.1-1.6-1.2-2.4z"/><path id="XMLID_654_" d="M1431.8 436.9c3.1.2 5.1.5 7.1.5 14.2.1 28.4-.1 42.7.2 5.9.1 9.2-2.3 11.4-7.7 3.8-9.3 8.1-18.5 12.2-27.7 8.5-19 16.9-38.1 25.9-58.3 2.1 2.2 3.8 3.9 5.3 5.7 20.3 24.9 40.5 49.9 60.9 74.6 12.6 15.3 6.7 12.6 27.3 13.3 7.4.2 13.7-1.7 20-5.7 43.4-27.9 87-55.5 130.5-83.2 2-1.2 4-2.3 7.4-4.3-1.8 4.3-3 7.1-4.1 9.7-10.9 24.7-21.9 49.5-32.7 74.2-1.1 2.6-3.3 5.1-1.5 8.7 3.1.1 6.3.4 9.4.4 37.2 0 74.3-.2 111.5.1 7.4.1 11.2-2.5 14-9.1 12.6-29 25.6-57.8 38.5-86.7 18.7-42.1 37.4-84.2 56-126.3 1-2.4 1.6-4.9 2.6-7.8-2.2-.4-3.6-.8-4.9-.8-14.2-.1-28.4-.4-42.7 0-3.4.1-7.2 1.6-10.1 3.5-76.1 47.8-152.1 95.7-228.2 143.6-1.5.9-3.1 1.7-5.1 2.7-1.5-2.4-2.9-4.5-4.2-6.6-21-33.9-41.9-67.9-62.9-101.8-7.6-12.3-15.3-24.5-22.9-36.8-2.1-3.4-4.6-5-8.9-5-14.7.3-29.4.5-44 .1-6.8-.2-10.5 2.4-13.1 8.5-5.7 13.5-11.8 26.8-17.8 40.3-25.6 57.6-51.2 115.2-76.7 172.8-1.1 2.7-1.8 5.5-2.9 8.9z"/><path id="XMLID_653_" d="M2387.4 307.5c4.2 5.4 9.1 10.3 14.1 15 25.1 23.2 50.4 46.2 75.6 69.3 1.8 1.6 3.5 3.3 5.2 5l-.6 1.5h-7.3c-45.9 0-91.8.1-137.6 0-5.8 0-9.4 1.6-11.7 7.2-3.2 8.1-7.1 15.9-10.6 23.9-1 2.2-1.3 4.7-2.2 7.7 5.8.2 10.9.5 15.9.5 58.9 0 117.9.1 176.8-.2 14.7-.1 29.4-.5 44-1.8 20.4-1.8 40.3-6 59.5-13.5 8.8-3.5 17.1-7.8 24.3-14.1 11.8-10.4 16.6-23.2 13.5-38.9-2-10-6.6-18.7-12.9-26.3-7-8.4-14.6-16.5-22.6-24-23.9-22.7-48.2-45.2-72.3-67.8-1.2-1.1-2.2-2.5-3.8-4.5 3.4-.1 5.6-.3 7.8-.3 14-.1 28-.1 42-.2 32.3 0 64.7-.1 97 .1 6.1 0 9.8-2.1 12-7.9 3.2-8.1 7-15.9 10.5-23.9.8-2 1.1-4.2 1.8-7.1-4.8-.2-8.6-.5-12.5-.5-67.9 0-135.8-.2-203.7 0-18.7 0-36.9 3.8-54.5 10.2-15.2 5.6-29.4 12.9-41.6 23.7-21.1 19.1-23.5 44.3-6.1 66.9z"/><path id="XMLID_652_" d="M1941.3 385.7c1.7 23.1 14.5 40 36.5 47.7 9.4 3.3 19.2 4.2 29.1 4.1 56.9-.1 113.7-.2 170.6 0 24.3.1 46.8-5.9 67.7-17.6 38.2-21.4 66.2-52.5 85.7-91.4 3.7-7.4 6.9-15 10.2-22.5 14.3-32.2 28.6-64.5 42.9-96.6-1.7-3.2-4.6-2.9-7.4-2.9-12.6 0-25.2.5-37.8 0-7.4-.3-11.1 2.7-13.9 9.3-12.4 28.8-25.1 57.5-37.9 86.2-5.3 11.9-10.7 23.8-16.8 35.4-8.4 16.1-18.4 31.2-32 43.5-12.8 11.6-27.6 17.5-45 17.4-31.6-.2-63.3 0-94.9-.1-3.9 0-7.8-.4-11.6-.9-9.7-1.4-14.6-6.8-14.7-16.7 0-3.9.2-7.9 1.4-11.5 3.8-11.3 7.5-22.6 12.2-33.5 17.3-39.7 35-79.2 52.6-118.8.8-1.9 1.7-3.8 2.4-5.7.9-2.5-.1-4-2.8-4.3-1.1-.1-2.3-.1-3.4-.1-40.4 0-80.7 0-121.1-.2-5.9 0-9.7 2-11.5 7.6-.4 1.3-1.1 2.5-1.7 3.8-15.4 34.8-30.9 69.5-46.3 104.3-9 20.2-14.1 41.1-12.5 63.5z"/><path id="XMLID_651_" d="M1250 246.4c2.4 0 4.8.2 7.9.4-28.1 63.5-55.9 126.1-84.2 190.1 4.8.3 7.7.7 10.6.7h112.2c1.6 0 3.2-.1 4.8 0 3.6.1 6.1-1.6 7.6-4.8.8-1.7 1.5-3.3 2.3-5 25.7-57.8 51.5-115.5 77.1-173.4 2.5-5.7 5.4-8.4 12-8.2 13.5.5 27.1.1 40.6.1 15.4 0 30.7-.2 46.1.1 6.1.1 9.8-2.1 12-7.9 3.2-8.3 7.1-16.4 10.6-24.6.8-1.8 1.1-3.7 1.8-6.4-4.1-.2-7.2-.6-10.4-.6-81.7 0-163.3-.1-245-.1-22.9 0-45.9.4-68.8-.2-8.7-.2-13.6 2.6-16.4 10.9-2.4 7.1-6 13.9-9 20.8-.9 2-1.4 4.2-2.4 7.4 4.3.3 7.9.8 11.4.8 26.4-.2 52.8-.2 79.2-.1z"/><path id="XMLID_650_" d="M650.5 432c10.6 4.4 21.6 5.5 33 5.5 64.9-.1 129.8-.1 194.7-.1 5.3 0 10.6-.2 15.8 0 4.5.2 7.4-1.7 9.2-5.7 3.8-8.6 7.7-17.1 11.4-25.8.9-2.1 1.2-4.5 2.1-7.7H782.2c-5 0-10.1-.3-15.1-.9-13.6-1.6-19.6-9.5-16.1-22.9 2.6-10.1 6.3-20.1 10.5-29.7 18.7-42.6 37.7-85 56.5-127.6 1.2-2.8 2-5.9 3.4-10.3h-9.3c-38.5-.1-77-.2-115.6-.2-14.2 0-13.7-2.4-20.7 13.5-16.1 36.7-32.5 73.3-48.7 110-7.6 17.2-12.5 35-11.1 54 1.6 23.1 13.1 39 34.5 47.9z"/><path id="XMLID_649_" d="M1152.1 216.7c1.3-2.9 3.2-5.6 1.6-9.6-2-.1-4.3-.3-6.5-.3-38.5-.1-77.1 0-115.6-.3-6.2 0-9.6 2.3-12 7.9-4.3 9.8-8.7 19.6-13.1 29.4-.6 1.3.4 2.8 1.8 2.8h130.5c4.5-9.9 8.9-19.9 13.3-29.9z"/><path id="XMLID_648_" d="M1134.6 256.3h-133.5c-25.3 57.1-50.7 114.1-76 171.2-1.3 2.9-2.1 5.9-3.4 9.6 4 .2 7.1.5 10.3.5 37.6 0 75.2-.2 112.8.1 6.8 0 10.3-2.3 13-8.5 11.1-25.7 22.7-51.1 34-76.7 14.3-32.1 28.5-64.1 42.8-96.2z"/><path id="XMLID_647_" d="M1903.1 625.9c-3.8-.9-7.7-1.5-11.6-1.5-20.4-.1-40.8 0-61.2 0-5.9 0-10.7 2.2-14.5 6.7-1 1.2-2 2.4-3.4 4.1-3.4-9.8-11.2-10.8-19.6-10.9h-3.4c-22.5 0-44.9.3-67.4-.1-8.2-.1-14.9 1.7-20 8.3-.1.2-.8-.1-1.3-.1-.1-2.5-.3-4.9-.4-7.8h-64.5c-.3 7.6.1 15-1.1 22.1-4.5 25.7-9.4 51.4-14.3 77-2.2 11.5-4.7 22.9-10.7 33.2-.2.3 0 .9.1 1.6h74.8c0-7.9-1-15.6.2-22.9 3.9-23 8.5-45.9 13-68.9.7-3.3 1.7-6.7 3.1-9.8 1.6-3.5 4.4-6.3 8.3-6.4 9.1-.3 18.3-.4 27.5 0 4.1.2 6.2 2.7 6.4 6.8.2 3.4-.1 6.9-.8 10.2-2.9 15.8-5.9 31.5-9 47.3-1.6 8.3-3.2 16.7-5.4 24.8-1.7 6.3-4.5 12.3-7 18.9h75.3c-2.3-10-1.4-19.5.6-29 3.4-16.6 6.5-33.3 9.8-49.9 1.3-6.7 2.6-13.5 4.2-20.2 1.1-4.8 4.1-8.6 9.3-8.8 9.4-.4 18.8-.5 28.1-.1 4.7.2 6.8 3 7.2 7.7.2 2-.1 4.1-.4 6.1-4.7 24.7-9.3 49.5-14.4 74.2-1.4 6.8-4.7 13.1-7.2 19.7 8.9 1.2 69.6.9 74.5-.5 0-5.9-.8-11.9.1-17.7 3.7-21.7 7.9-43.3 12-64.9 1.7-9 3.2-18 2.2-27.3-1.1-11.7-7.5-19.2-19.1-21.9z"/><path id="XMLID_644_" d="M1030.6 734c-9.1-42.8-17.7-85.7-26.6-128.5-1.9-9.4-4-18.7-6-28h-78.8c.3 1.2.2 1.9.6 2.5 3.2 4.9 2.3 9-.9 13.9-26.9 40.4-53.5 81.1-80.3 121.6-9.5 14.4-19.5 28.3-31.6 40.6-.5.5-.8 1.4-1.3 2.4h48.5c0-2.7.1-5 0-7.2-.3-4.7.7-9.1 3.3-13.1 5.1-7.9 10.3-15.7 15.4-23.6 2.1-3.2 4.7-4.5 8.6-4.4 19.9.2 39.9.1 59.8.2 2.9 0 5.9.3 9.2.4 1.6 5.6 3.1 10.9 4.5 16.1 2.9 10.8 3.9 21.3-5.1 31.6h90.5c-1.2-2.4-2.3-4.1-3-5.9-2.4-6.2-5.4-12.2-6.8-18.6zm-133.2-54.3c1-5 27.9-47.6 33.7-53.5.4.6.9 1.1 1.1 1.7 3.7 17 7.4 33.9 11.3 51.8h-46.1z"/><path id="XMLID_641_" d="M2556.3 625.7c-4.5-.8-9.1-1.4-13.7-1.4-33-.1-66 .2-99-.1-21.8-.2-41.9 17-45.6 37.5-2.9 16-6.3 31.9-9.2 47.9-1.3 7-2.6 14-2.7 21-.2 14.1 6.3 22.4 20 25.6 7.3 1.7 14.9 2.4 22.5 2.5 15.1.4 30.3.1 45.4.1v.1c16.5 0 33 .1 49.5 0 25.5-.2 40.7-12.9 45.6-37.8 0-.2.1-.5.1-.7 2.6-13 5.2-26 7.7-39.1 1.5-7.6 3.2-15.3 3.9-23 1.9-20.2-7.7-29.8-24.5-32.6zm-43 41.5c-2.2 12.2-4.6 24.3-6.9 36.4-1 5.4-1.9 10.8-3.3 16.1-2.5 9.3-7.1 12.9-16.7 13.3-3.4.1-6.9 0-10.3 0-3.4 0-6.9.1-10.3 0-10.1-.5-13.7-4.7-12-14.6 1.7-10.4 3.9-20.7 5.9-31 1.2-6.5 2.5-13 3.7-19.6 2.5-12.8 7.5-17.3 20.4-17.8 5.5-.2 11-.1 16.5.1 11.6.7 15.1 5.2 13 17.1z"/><path id="XMLID_638_" d="M1588.6 627.2c-6.8-1.8-14-2.8-21-2.8-33-.2-66 0-99 .1-2.5 0-5.1.1-7.5.7-20.3 4.9-32.7 17.8-36.9 38.1-3.9 18.6-7.3 37.3-10.8 56-.8 4.2-1 8.7-.8 13 .6 13.1 6.7 21 19.6 24 7.1 1.7 14.5 2.4 21.8 2.6 15.8.4 31.6.1 47.4.1h46.8c27.7-.1 42.3-12.1 47.8-39.4 2.8-13.7 5.6-27.4 8-41.1 1.6-9.2 3.2-18.6 3.2-27.9-.1-12.5-6.5-20.2-18.6-23.4zm-48.4 37.3c-2.4 14.7-5.4 29.3-8.1 43.9-.8 4-1.4 8.1-2.5 12.1-2.3 8.2-6.8 11.8-15.3 12.4-4.1.3-8.2.1-12.4.1v-.1c-4.1 0-8.3.4-12.4-.1-7.1-.8-10.3-4.5-9.4-11.6 1.1-8.8 3-17.6 4.6-26.4 1.8-9.4 3.6-18.9 5.5-28.3 2.2-11.1 7.4-15.8 18.7-16.3 6.6-.3 13.3-.3 19.9.2 9.2.6 12.9 5.1 11.4 14.1z"/><path id="XMLID_635_" d="M2101.5 624.8c-2.9-.5-5.9-.6-8.9-.6h-122.4c-1.8 0-3.5.2-5.6.4-3.3 9.9-6.6 19.6-10 29.7 8-1.5 14.7-3.8 21.4-3.9 24.3-.5 48.6-.3 72.9-.3 1.1 0 2.3.1 3.4.2 5.6.7 7.4 2.1 7.7 6 .4 4.7-2.7 9.3-7.4 10.2-2 .4-4.1.3-6.2.4-20.4 0-40.8 0-61.2.1-5.5 0-11.1.2-16.4 1.3-15.3 3.2-25.3 12.4-28.8 27.9-2.1 8.9-3.8 17.9-5.2 27-.7 4.3-.7 8.7-.5 13 .6 10.7 5.5 17.1 15.7 20 5 1.4 10.3 2.4 15.5 2.5 18.3.3 36.7.2 55 .1 8.5-.1 16.2-2.7 22.3-9.1.6-.7 1.6-1 2.6-1.6 1.1 10.6-.8 10.6 10.7 10.6 16.5.1 33 0 49.5 0 1.7 0 3.5-.3 5.1-.5 0-5.5-.5-10.6.1-15.6 1.2-10.2 2.7-20.4 4.6-30.6 3.1-17.1 6.7-34.2 9.8-51.3 3.6-18.3-5.9-32.6-23.7-35.9zm-52 89.7c-.6 3.1-1.3 6.3-2.4 9.3-1.9 5.1-5.6 8.5-11.2 8.8-8.4.4-16.9.5-25.3.2-5.9-.3-9.4-4.1-8.8-10 .7-7 2.1-14 3.7-20.8 1.2-4.7 4.8-8 9.6-8.7 12.4-1.9 25-.8 38.4-1-1.4 8-2.6 15.1-4 22.2z"/><path id="XMLID_634_" d="M1185.4 647.3c-2.9 17.6-6.6 35.1-10 52.7-1.4 7.4-2.9 14.8-4.7 22.2-1.6 6.6-6 10.3-12.7 10.6-8 .3-16.1.4-24.1 0-6.3-.3-8.8-3.6-8.4-10.1.3-4.1 1.1-8.2 1.9-12.2 5.1-27 10.3-54 15.4-81 .3-1.5.2-3 .2-4.7h-68.8c-.3 7.7.1 15.1-1.1 22.2-3.6 21.5-8.2 42.8-11.8 64.2-1.4 8.3-2.2 16.9-2 25.3.3 10.8 6.1 17.5 16.5 20.2 5.5 1.4 11.3 2.2 17 2.3 18.1.3 36.2.1 54.3.2 9.3.1 17.8-1.7 24.1-9.3.2-.2.8 0 1.6 0 .3 2.8.6 5.7.9 8.9h61.5c-2.5-8-2.2-15.2-.8-22.5 5.2-26.8 10.5-53.5 15.7-80.3 2-10.3 3.9-20.6 5.9-31.2h-69.5c-.3 7.6.1 15.2-1.1 22.5z"/><path id="XMLID_633_" d="M2224.9 732.6c-7.4-.3-9.8-3.8-9.6-11.4.1-2.1.3-4.1.7-6.1 2.6-14 5.3-27.9 8-41.8 1.5-7.6 3-15.2 4.7-23.4h55.6c1.6-8.7 3.1-16.7 4.8-25.6h-55.5c1.9-10.4 3.6-20 5.5-30.6-22.6.9-44.3 1.8-66.2 2.7-1.9 9.6-3.7 18.5-5.6 27.8h-20.2c-1.7 8.9-3.2 16.9-4.9 26.1h19.9c-.3 2.6-.3 4.2-.6 5.8-2.8 14.6-5.9 29.2-8.6 43.8-1.8 10.1-4.2 20.3-4.6 30.5-.5 14 7 23 20.8 25.9 7.6 1.6 15.4 2.4 23.2 2.6 22.2.3 44.5.1 66.7.1 2.3 0 4.5-.2 7.4-.3 3.6-10.1 7.1-20.1 10.9-30.9-6.4 1.8-11.8 4.2-17.2 4.6-11.8.6-23.6.6-35.2.2z"/><path id="XMLID_632_" d="M1348.6 679.3c1.9-9.6 3.8-19.2 5.8-29.4h55.6c1.6-8.7 3.1-16.7 4.8-25.6h-55.5c1.9-10.4 3.7-20 5.6-30.7-22.5.9-44.4 1.9-66.4 2.8-1.9 9.7-3.7 18.6-5.5 27.9h-20c-1.8 8.6-3.9 16.6-4.7 25.8h19.4c-.1 1.9 0 3.1-.2 4.2-2.9 14.8-5.9 29.7-8.6 44.5-1.8 9.9-4.2 19.8-4.7 29.8-.9 15.5 6.6 24.8 21.8 27.8 7.8 1.6 15.9 2.2 23.9 2.3 21.8.3 43.6.1 65.3.1h7c3.6-10.4 7.1-20.3 11-31.4-16.9 5.4-35 7.2-51.6 5.3-1.4-.2-2.7-.5-4-.8-4.1-1.1-6.3-3.8-6.3-7.9 0-3.2.3-6.4.8-9.6 2-11.7 4.2-23.4 6.5-35.1z"/><path id="XMLID_631_" d="M2308 649.3c-4 23.5-8.6 46.8-13.1 70.2-2.5 12.8-4.9 25.7-11.5 37.2-.3.5.1 1.2.2 1.8h74.7c-2-8.8-1.6-17.1.1-25.5 6-30.1 11.7-60.2 17.5-90.3 1.1-5.9 2.1-11.9 3.2-18.2h-69.4c-.5 8.6-.3 16.8-1.7 24.8z"/><path id="XMLID_630_" d="M2387.1 577.7c-20.3-.2-40.7-.5-61-.7-3.3 0-4.2 1.8-4.7 4.6-1.5 8.1-3.1 16.1-4.6 24.2-.3 1.4-.3 2.9-.5 4.8h65.8c2.2-11.1 4.2-21.8 6.3-32.3-.9-.4-1.1-.6-1.3-.6z"/></g></g></svg>