<?xml version="1.0" encoding="UTF-8"?>
<svg width="146px" height="50px" viewBox="0 0 146 50" version="1.1" xmlns="http://www.w3.org/2000/svg" xmlns:xlink="http://www.w3.org/1999/xlink">
    <!-- Generator: Sketch 51.3 (57544) - http://www.bohemiancoding.com/sketch -->
    <title>OPC</title>
    <desc>Created with Sketch.</desc>
    <defs></defs>
    <g id="Icons" stroke="none" stroke-width="1" fill="none" fill-rule="evenodd">
        <g id="Menu-Icons" transform="translate(-213.000000, -160.000000)" fill="#FFFFFF" class="icon__text">>
            <path d="M238.128,209.68 C223.584,209.68 213,199.312 213,184.84 C213,170.368 223.584,160 238.128,160 C252.6,160 263.184,170.368 263.184,184.84 C263.184,199.312 252.6,209.68 238.128,209.68 Z M238.128,200.608 C246.984,200.608 252.672,193.768 252.672,184.84 C252.672,175.84 246.984,169.072 238.128,169.072 C229.2,169.072 223.512,175.84 223.512,184.84 C223.512,193.768 229.2,200.608 238.128,200.608 Z M280.608,208.816 L270.384,208.816 L270.384,160.792 L292.848,160.792 C303.288,160.792 308.976,167.848 308.976,176.272 C308.976,184.624 303.216,191.68 292.848,191.68 L280.608,191.68 L280.608,208.816 Z M291.408,182.68 C295.44,182.68 298.536,180.232 298.536,176.272 C298.536,172.24 295.44,169.792 291.408,169.792 L280.608,169.792 L280.608,182.68 L291.408,182.68 Z M338.712,209.68 C324.24,209.68 313.08,199.6 313.08,184.84 C313.08,170.008 324.24,160 338.712,160 C349.224,160 355.344,165.688 358.728,171.736 L349.944,176.056 C347.928,172.168 343.608,169.072 338.712,169.072 C329.928,169.072 323.592,175.768 323.592,184.84 C323.592,193.912 329.928,200.608 338.712,200.608 C343.608,200.608 347.928,197.512 349.944,193.624 L358.728,197.872 C355.344,203.848 349.224,209.68 338.712,209.68 Z" id="OPC"></path>
        </g>
    </g>
</svg>