<svg xmlns="http://www.w3.org/2000/svg" viewBox="0 0 867.1 194"><g fill="#FFF"><path stroke="#FFF" stroke-width="9" stroke-miterlimit="10" d="M27.6 139c7.1 7.2 20.9 11.4 34.2 11.4 14.9 0 29.6-5.6 29.6-19 0-15.8-15-17-33.2-20.4-16.3-3-31.5-7.2-31.5-24.3C26.7 69 45.6 60.9 65 60.9c11.1 0 22.4 2.6 30.7 7.7l-4.6 5.7c-7.3-4.5-17.1-6.9-27-6.9-15.3 0-29.4 6.2-29.4 19 0 12.7 12.8 15.7 25.7 18.1 20.1 3.8 39.3 6.2 39.3 26.9 0 17.8-19.1 25.7-38.1 25.7-14.7 0-30.6-4.6-38.8-12.8l4.8-5.3zM190.4 149.3c-7.1 4.9-16.2 7.7-27 7.7-29.7 0-46.7-20.5-46.7-48.1s17-48.1 46.7-48.1c10.8 0 19.9 2.8 27 7.7l-5 5.4c-5.9-4.2-13.1-6.4-22-6.4-24.6 0-38.8 16.9-38.8 41.4s14.2 41.4 38.8 41.4c8.9 0 16.2-2.2 22-6.4l5 5.4z"/><path stroke="#FFF" stroke-width="4" stroke-miterlimit="10" d="M253.8 60.9c29.7 0 46.9 20.5 46.9 48.1 0 27.9-16.9 48.2-46.9 48.2-29.2 0-46.7-20.3-46.7-48.2 0-27.6 17-48.1 46.7-48.1zm0 6.7c-24.6 0-38.8 16.9-38.8 41.4 0 24.8 14.7 41.5 38.8 41.5 24.8 0 39-16.7 39-41.5 0-24.5-14.4-41.4-39-41.4z"/><path d="M397.3 113.3c0 25.9-8.4 44-37.2 44-28.5 0-37.2-17.5-37.2-44V62.5h7.9v50.3c0 24.1 7 37.4 29.2 37.4 22.5 0 29.2-13.6 29.2-37.4V62.5h7.9v50.8zM457.3 69.1v86.5h-7.9V69.1h-34.6v-6.6H492v6.6h-34.7z"/></g><g fill="#FFF"><path d="M524.7 65.9h66.1V83h-46.2v20.3h45.2v17.1h-45.2v21.7h46.2v17.2h-66.1V65.9zM652.4 150.6c-5.3 6.7-12.7 10.4-20.9 10.4-17.1 0-30-12.9-30-35.4 0-22.1 12.7-35.6 30-35.6 8 0 15.5 3.5 20.9 10.4V65.9h17.9v93.4h-17.9v-8.7zm0-37.1c-2.9-4.5-9.4-7.7-15.4-7.7-10.1 0-17.1 8-17.1 19.7 0 11.6 7 19.6 17.1 19.6 6 0 12.5-3.2 15.4-7.7v-23.9zM694.5 163.8c5.5 6 12.6 8.4 21.1 8.4s18.6-3.8 18.6-17.1v-6.9c-5.3 6.7-12.6 10.6-20.9 10.6-16.9 0-29.8-11.9-29.8-34.4 0-22.1 12.7-34.4 29.8-34.4 8.1 0 15.4 3.5 20.9 10.4v-8.7h17.9v63c0 25.8-19.9 32.1-36.5 32.1-11.6 0-20.6-2.7-29.1-10.1l8-12.9zm39.8-50.3c-2.9-4.5-9.4-7.7-15.3-7.7-10.1 0-17.1 7-17.1 18.6 0 11.6 7 18.6 17.1 18.6 5.9 0 12.3-3.4 15.3-7.7v-21.8zM800.5 90c20.2 0 33.9 15.1 33.9 37.2v3.9h-50.3c1.1 8.5 8 15.7 19.5 15.7 6.3 0 13.7-2.5 18.1-6.7l7.8 11.5c-6.7 6.2-17.4 9.4-27.9 9.4-20.6 0-36.1-13.9-36.1-35.6 0-19.6 14.4-35.4 35-35.4zm-16.6 29.1h33.3c-.4-6.4-4.9-15-16.7-15-11 0-15.8 8.3-16.6 15z"/></g><g fill="#FFF"><path d="M501.9 40.7v1.4H498v10.1h-1.6V42.1h-3.9v-1.4h9.4zM503.3 40.7h2.2l3.3 9.7 3.3-9.7h2.2v11.5h-1.5v-6.8-1.2-1.7l-3.3 9.7H508l-3.3-9.7v9.8h-1.5V40.7z"/></g></svg>