<svg xmlns="http://www.w3.org/2000/svg" viewBox="0 0 62.9 98.8"><path d="M18.724 5.628V23.82l-1.44 1.106v12.538l-.96.86v5.655l2.08 1.475v8.112l-2.08 2.581C8.962 56.147 0 57.377 0 57.377v3.687l2.881 1.844v12.906H1.76l-.96 2.95 1.921 2.827 2.88 1.844 3.681.615 1.44 2.827v2.458l3.041 2.336V98.8H26.726v-7.129l3.041-2.336v-2.458l1.44-2.827 3.681-.615 2.88-1.844 1.921-2.827-1.12-3.073h-1.121V62.908l2.881-1.844v-3.687s-8.962-1.23-16.324-1.23l-2.08-2.581v-8.112l2.08-1.475v-5.655l-.96-.86V24.926l-1.44-1.106V5.628l-1.601-.737M54.284 40.66c-.971 0-1.456-.369-1.82-.984-.364-.614-.243-1.352.121-1.966.85-1.107 1.942-2.213 2.791-3.442 3.519-5.163 4.976-10.94 4.126-17.208-.728-5.163-2.791-9.588-6.31-13.521-.364-.369-.607-.738-.849-1.107-.364-.737 0-1.598.606-2.089.728-.492 1.578-.492 2.185.245.606.615 1.213 1.23 1.82 1.967 3.155 3.934 5.218 8.482 5.946 13.521.849 6.023-.121 11.8-2.912 17.209-1.214 2.458-2.913 4.671-4.854 6.637-.122.369-.607.615-.85.738zm0 0"/><path d="M47.61 33.776c.121-.245.364-.737.728-1.229 2.548-2.704 4.126-5.9 4.611-9.71.728-5.409-.728-10.08-4.247-14.136-.364-.492-.849-.983-1.092-1.475-.243-.737.121-1.598.728-1.967.728-.491 1.578-.368 2.184.246.85.984 1.821 2.09 2.549 3.196 3.64 5.654 4.49 11.8 2.548 18.192a20.172 20.172 0 0 1-4.975 8.358c-.607.615-1.214.738-1.942.492s-1.092-.86-1.092-1.967zm0 0"/><path d="M50.158 20.378c-.121 3.934-1.456 7.252-4.126 9.957-.728.86-1.82.983-2.548.245-.728-.737-.849-1.72 0-2.581 1.578-1.721 2.67-3.687 2.912-6.023.486-3.196-.364-6.023-2.305-8.604l-.728-.738c-.728-.86-.607-1.843.121-2.581a1.86 1.86 0 0 1 2.548.123c1.699 1.844 3.034 3.933 3.641 6.392.121 1.352.243 2.581.485 3.81zm0 0"/><path d="M42.877 20.624c0 1.475-.606 2.827-1.699 3.934-.728.737-1.698.737-2.427.122-.728-.614-.849-1.598-.242-2.458 0-.123.121-.123.121-.246.971-1.229.971-2.212 0-3.441-.728-.984-.728-1.967.121-2.705.85-.614 1.821-.491 2.549.369 1.213 1.352 1.577 2.704 1.577 4.425zm0 0"/></svg>