<svg xmlns="http://www.w3.org/2000/svg" viewBox="0, 0, 362, 284"><defs><clipPath id="a"><path d="M.06.475h361.851V284H.06z"/></clipPath><clipPath id="b"><path d="M.06.475h361.851V284H.06z"/></clipPath></defs><path d="M216.156 203.645V66.187c0-11.795-9.619-21.351-21.478-21.351-11.867 0-21.478 9.556-21.478 21.351v137.458c0 11.795 9.611 21.351 21.478 21.351 11.859 0 21.478-9.556 21.478-21.351M158.423 159.284V21.826c0-11.795-9.619-21.351-21.477-21.351-11.868 0-21.478 9.556-21.478 21.351v137.458c0 11.795 9.61 21.351 21.478 21.351 11.858 0 21.477-9.556 21.477-21.351M273.89 178.375V40.916c0-11.794-9.619-21.35-21.478-21.35-11.867 0-21.478 9.556-21.478 21.35v137.459c0 11.795 9.611 21.351 21.478 21.351 11.859 0 21.478-9.556 21.478-21.351M331.624 223.015V85.556c0-11.794-9.62-21.35-21.478-21.35-11.868 0-21.478 9.556-21.478 21.35v137.459c0 11.795 9.61 21.351 21.478 21.351 11.858 0 21.478-9.556 21.478-21.351"/><g clip-path="url(#a)"><path d="M100.69 228.013V90.554c0-11.795-9.62-21.35-21.478-21.35-11.868 0-21.478 9.555-21.478 21.35v137.459c0 11.794 9.61 21.35 21.478 21.35 11.858 0 21.478-9.556 21.478-21.35M42.956 207.682V70.223c0-11.795-9.62-21.35-21.478-21.35C9.61 48.873 0 58.428 0 70.223v137.459c0 11.795 9.61 21.35 21.478 21.35 11.858 0 21.478-9.555 21.478-21.35"/></g><path d="M317.739 283.682h13.885v-2.915h-10.625v-4.981h9.3v-2.915h-9.3v-4.823h10.492v-2.914h-13.752v18.548M296.724 283.682h3.206v-13.196l10.228 13.196h2.729v-18.548h-3.206v12.825l-9.937-12.825h-3.02v18.548M288.57 265.133h3.259v18.549h-3.259zM268.268 283.682h3.259v-7.816h8.851v7.816h3.259v-18.548h-3.259v7.71h-8.851v-7.71h-3.259v18.548M257.542 284c3.471 0 5.591-1.271 7.525-3.285l-2.093-2.121c-1.59 1.485-3.048 2.412-5.326 2.412-3.551 0-6.121-2.968-6.121-6.598v-.053c0-3.63 2.57-6.545 6.121-6.545 2.119 0 3.71.927 5.193 2.305l2.094-2.411c-1.776-1.696-3.842-2.888-7.261-2.888-5.617 0-9.565 4.318-9.565 9.592v.053c0 5.326 4.027 9.539 9.433 9.539M227.71 283.682h3.34l1.907-4.478h8.771l1.881 4.478h3.445l-8.161-18.681h-3.021l-8.162 18.681zm6.44-7.366l3.179-7.42 3.207 7.42h-6.386M206.536 283.682h3.207v-13.249l5.802 8.692h.107l5.855-8.745v13.302h3.26v-18.548h-3.471l-5.644 8.77-5.645-8.77h-3.471v18.548M181.009 283.602h13.963v-2.931h-10.686v-5.01h9.355v-2.93h-9.355v-4.85h10.553v-2.931h-13.83v18.652M160.482 283.602h3.278v-7.86h8.9v7.86h3.279V264.95h-3.279v7.755h-8.9v-7.755h-3.278v18.652M147.981 283.602h3.303v-15.613h5.917v-3.039h-15.136v3.039h5.916v15.613M117.923 283.602h3.277v-7.594h9.408v-2.984H121.2v-5.09h10.606v-2.984h-13.883v18.652M104.006 283.923c5.729 0 9.779-4.397 9.779-9.646v-.055c0-5.249-3.998-9.591-9.726-9.591-5.729 0-9.779 4.395-9.779 9.646v.053c0 5.249 3.995 9.593 9.726 9.593m.053-3.011c-3.704 0-6.341-3.011-6.341-6.635v-.055c0-3.624 2.584-6.58 6.288-6.58s6.341 3.011 6.341 6.635v.053c0 3.624-2.584 6.582-6.288 6.582M70.169 283.682h13.884v-2.915H73.427v-4.981h9.301v-2.915h-9.301v-4.823h10.494v-2.914H70.169v18.548M59.442 284c3.472 0 5.591-1.271 7.526-3.285l-2.094-2.121c-1.59 1.485-3.047 2.412-5.326 2.412-3.551 0-6.121-2.968-6.121-6.598v-.053c0-3.63 2.57-6.545 6.121-6.545 2.12 0 3.71.927 5.193 2.305l2.094-2.411c-1.776-1.696-3.842-2.888-7.261-2.888-5.617 0-9.565 4.318-9.565 9.592v.053c0 5.326 4.028 9.539 9.433 9.539M42.754 265.133h3.259v18.549h-3.259z"/><g clip-path="url(#b)"><path d="M29.033 284c5.698 0 9.725-4.372 9.725-9.592v-.053c0-5.221-3.975-9.539-9.671-9.539-5.698 0-9.726 4.372-9.726 9.592v.053c0 5.22 3.976 9.539 9.672 9.539m.054-2.994c-3.684 0-6.307-2.995-6.307-6.598v-.053c0-3.604 2.57-6.545 6.253-6.545 3.684 0 6.307 2.994 6.307 6.598v.053c0 3.604-2.571 6.545-6.253 6.545M7.711 283.815h2.861l7.711-18.681h-3.524l-5.565 14.255-5.591-14.255H0l7.711 18.681"/></g><path d="M356.211 76.31l1.828 5.121 1.84-5.121h2.032v7.154h-1.312v-5.772l-1.979 5.772h-1.144l-1.998-5.772v5.772h-1.312V76.31h2.045zm-9.356 1.194V76.31h6.097v1.194h-2.338v5.96h-1.421v-5.96h-2.338"/></svg>