<?xml version="1.0" encoding="UTF-8" standalone="no"?>
<!DOCTYPE svg PUBLIC "-//W3C//DTD SVG 1.1//EN" "http://www.w3.org/Graphics/SVG/1.1/DTD/svg11.dtd">
<svg width="100%" height="100%" viewBox="0 0 1382 1038" version="1.1" xmlns="http://www.w3.org/2000/svg" xmlns:xlink="http://www.w3.org/1999/xlink" xml:space="preserve" xmlns:serif="http://www.serif.com/" style="fill-rule:evenodd;clip-rule:evenodd;stroke-linejoin:round;stroke-miterlimit:1.41421;">
    <g transform="matrix(4.16667,0,0,4.16667,0,-1.97919)">
        <path d="M216.156,203.645L216.156,66.187C216.156,54.392 206.537,44.837 194.678,44.837C182.811,44.837 173.2,54.392 173.2,66.187L173.2,203.645C173.2,215.44 182.811,224.996 194.678,224.996C206.537,224.996 216.156,215.44 216.156,203.645Z" style="fill:rgb(2,179,191);fill-rule:nonzero;"/>
        <path d="M158.423,159.284L158.423,21.826C158.423,10.031 148.804,0.475 136.946,0.475C125.078,0.475 115.468,10.031 115.468,21.826L115.468,159.284C115.468,171.079 125.078,180.635 136.946,180.635C148.804,180.635 158.423,171.079 158.423,159.284Z" style="fill:rgb(120,200,210);fill-rule:nonzero;"/>
        <path d="M273.89,178.375L273.89,40.917C273.89,29.122 264.271,19.566 252.412,19.566C240.545,19.566 230.934,29.122 230.934,40.917L230.934,178.375C230.934,190.17 240.545,199.726 252.412,199.726C264.271,199.726 273.89,190.17 273.89,178.375Z" style="fill:rgb(120,200,210);fill-rule:nonzero;"/>
        <path d="M331.624,223.015L331.624,85.557C331.624,73.762 322.004,64.206 310.146,64.206C298.278,64.206 288.668,73.762 288.668,85.557L288.668,223.015C288.668,234.81 298.278,244.366 310.146,244.366C322.004,244.366 331.624,234.81 331.624,223.015Z" style="fill:rgb(0,162,174);fill-rule:nonzero;"/>
        <path d="M100.69,228.013L100.69,90.554C100.69,78.76 91.07,69.204 79.211,69.204C67.344,69.204 57.733,78.76 57.733,90.554L57.733,228.013C57.733,239.807 67.344,249.363 79.211,249.363C91.07,249.363 100.69,239.807 100.69,228.013Z" style="fill:rgb(0,162,174);fill-rule:nonzero;"/>
        <path d="M42.955,207.682L42.955,70.224C42.955,58.429 33.336,48.873 21.477,48.873C9.61,48.873 0,58.429 0,70.224L0,207.682C0,219.477 9.61,229.032 21.477,229.032C33.336,229.032 42.955,219.477 42.955,207.682Z" style="fill:rgb(2,179,191);fill-rule:nonzero;"/>
    </g>
</svg>
