<svg viewBox="0 0 1517 1184" xmlns="http://www.w3.org/2000/svg" fill-rule="evenodd" clip-rule="evenodd" stroke-linejoin="round" stroke-miterlimit="1.414"><g fill-rule="nonzero"><path d="M900.65 848.522V275.779c0-49.145-40.078-88.958-89.491-88.958-49.446 0-89.492 39.813-89.492 88.958v572.743c0 49.145 40.046 88.962 89.492 88.962 49.413 0 89.492-39.817 89.492-88.962z" fill="#02b3bf"/><path d="M660.096 663.684V90.942c0-49.146-40.079-88.963-89.487-88.963-49.45 0-89.492 39.817-89.492 88.963v572.742c0 49.146 40.042 88.962 89.492 88.962 49.408 0 89.487-39.816 89.487-88.962zM1141.21 743.23V170.488c0-49.146-40.08-88.963-89.492-88.963-49.446 0-89.492 39.817-89.492 88.963V743.23c0 49.146 40.046 88.962 89.492 88.962 49.412 0 89.491-39.816 89.491-88.962z" fill="#78c8d2"/><path d="M1381.768 929.23V356.488c0-49.146-40.084-88.963-89.492-88.963-49.45 0-89.492 39.817-89.492 88.963V929.23c0 49.146 40.042 88.962 89.492 88.962 49.408 0 89.492-39.816 89.492-88.962zM419.542 950.055V377.309c0-49.142-40.083-88.959-89.496-88.959-49.446 0-89.492 39.817-89.492 88.959v572.746c0 49.142 40.046 88.958 89.492 88.958 49.413 0 89.496-39.816 89.496-88.958z" fill="#00a2ae"/><path d="M178.98 865.342V292.6c0-49.146-40.08-88.962-89.492-88.962C40.042 203.638 0 243.454 0 292.6v572.742c0 49.146 40.042 88.959 89.488 88.959 49.412 0 89.491-39.813 89.491-88.959z" fill="#02b3bf"/><path d="M1323.914 1182.01h57.854v-12.147h-44.271v-20.754h38.75v-12.146h-38.75v-20.095h43.717v-12.142h-57.3v77.283zM1236.351 1182.01h13.358v-54.984l42.617 54.983h11.37v-77.283h-13.357v53.437l-41.405-53.437h-12.583v77.283zM1202.376 1104.722h13.58v77.287h-13.58zM1117.784 1182.01h13.58v-32.567h36.879v32.566h13.579v-77.283h-13.58v32.125h-36.879v-32.125h-13.579v77.283zM1073.093 1183.334c14.462 0 23.295-5.296 31.354-13.687l-8.721-8.838c-6.625 6.188-12.7 10.05-22.192 10.05-14.796 0-25.504-12.366-25.504-27.491v-.221c0-15.125 10.708-27.271 25.504-27.271 8.83 0 15.459 3.862 21.638 9.604l8.725-10.046c-7.4-7.066-16.013-12.033-30.254-12.033-23.405 0-39.855 17.992-39.855 39.967v.22c0 22.192 16.78 39.746 39.305 39.746zM948.792 1182.01h13.917l7.946-18.66h36.546l7.837 18.66h14.354l-34.004-77.838h-12.587l-34.009 77.837zm26.834-30.692l13.246-30.917 13.362 30.917h-26.608zM860.567 1182.01h13.363v-55.205l24.175 36.217h.446l24.396-36.438v55.425h13.583v-77.283h-14.463l-23.516 36.542-23.521-36.542h-14.463v77.283z" fill="#fff"/><path d="M754.205 1181.676h58.179v-12.213h-44.525v-20.875h38.98v-12.208h-38.98v-20.208h43.97v-12.213h-57.624v77.717zM668.676 1181.676h13.658v-32.75h37.083v32.75h13.663v-77.717h-13.663v32.313h-37.083v-32.313h-13.658v77.717zM616.588 1181.676h13.763v-65.054h24.654v-12.663h-63.067v12.663h24.65v65.054zM491.346 1181.676H505v-31.642h39.2v-12.433H505v-21.208h44.192v-12.434h-57.846v77.717zM433.359 1183.013c23.87 0 40.746-18.32 40.746-40.191v-.23c0-21.87-16.659-39.962-40.525-39.962-23.871 0-40.75 18.313-40.75 40.192v.22c0 21.871 16.65 39.971 40.529 39.971zm.22-12.545c-15.433 0-26.425-12.546-26.425-27.646v-.23c0-15.1 10.771-27.416 26.205-27.416 15.433 0 26.42 12.546 26.42 27.646v.22c0 15.1-10.766 27.426-26.2 27.426z" fill="#9f968d"/><path d="M292.367 1182.01h57.85v-12.147h-44.27v-20.754H344.7v-12.146h-38.754v-20.095h43.72v-12.142h-57.3v77.283zM247.675 1183.334c14.463 0 23.296-5.296 31.354-13.687l-8.72-8.838c-6.625 6.188-12.7 10.05-22.192 10.05-14.796 0-25.508-12.366-25.508-27.491v-.221c0-15.125 10.712-27.271 25.508-27.271 8.829 0 15.454 3.862 21.637 9.604l8.721-10.046c-7.396-7.066-16.004-12.033-30.25-12.033-23.404 0-39.858 17.992-39.858 39.967v.22c0 22.192 16.783 39.746 39.308 39.746zM178.138 1104.722h13.579v77.287h-13.58zM120.97 1183.334c23.738 0 40.518-18.216 40.518-39.966v-.221c0-21.754-16.559-39.746-40.296-39.746-23.738 0-40.521 18.217-40.521 39.967v.22c0 21.75 16.562 39.746 40.3 39.746zm.222-12.475c-15.346 0-26.275-12.479-26.275-27.491v-.221c0-15.017 10.704-27.271 26.054-27.271 15.35 0 26.275 12.475 26.275 27.492v.22c0 15.017-10.708 27.271-26.054 27.271zM32.125 1182.563H44.05l32.13-77.837H61.491l-23.184 59.396-23.295-59.396H0l32.125 77.837zM1487.151 317.417l8.271 23.162 8.317-23.162h9.191v32.354h-5.933v-26.104l-8.95 26.104h-5.175l-9.033-26.104v26.104h-5.938v-32.354h9.25zm-42.317 5.4v-5.4h27.58v5.4h-10.575v26.954h-6.425v-26.954h-10.58z" fill="#fff"/></g></svg>