<?xml version="1.0" encoding="UTF-8" standalone="no"?>
<!DOCTYPE svg PUBLIC "-//W3C//DTD SVG 1.1//EN" "http://www.w3.org/Graphics/SVG/1.1/DTD/svg11.dtd">
<svg width="100%" height="100%" viewBox="0 0 4391 1182" version="1.1" xmlns="http://www.w3.org/2000/svg" xmlns:xlink="http://www.w3.org/1999/xlink" xml:space="preserve" xmlns:serif="http://www.serif.com/" style="fill-rule:evenodd;clip-rule:evenodd;stroke-linejoin:round;stroke-miterlimit:1.41421;">
    <g transform="matrix(4.16667,0,0,4.16667,0,-1.97919)">
        <path d="M216.156,203.645L216.156,66.187C216.156,54.392 206.537,44.837 194.678,44.837C182.811,44.837 173.2,54.392 173.2,66.187L173.2,203.645C173.2,215.44 182.811,224.996 194.678,224.996C206.537,224.996 216.156,215.44 216.156,203.645Z" style="fill:rgb(2,179,191);fill-rule:nonzero;"/>
        <path d="M158.423,159.284L158.423,21.826C158.423,10.031 148.804,0.475 136.946,0.475C125.078,0.475 115.468,10.031 115.468,21.826L115.468,159.284C115.468,171.079 125.078,180.635 136.946,180.635C148.804,180.635 158.423,171.079 158.423,159.284Z" style="fill:rgb(120,200,210);fill-rule:nonzero;"/>
        <path d="M273.89,178.375L273.89,40.917C273.89,29.122 264.271,19.566 252.412,19.566C240.545,19.566 230.934,29.122 230.934,40.917L230.934,178.375C230.934,190.17 240.545,199.726 252.412,199.726C264.271,199.726 273.89,190.17 273.89,178.375Z" style="fill:rgb(120,200,210);fill-rule:nonzero;"/>
        <path d="M331.624,223.015L331.624,85.557C331.624,73.762 322.004,64.206 310.146,64.206C298.278,64.206 288.668,73.762 288.668,85.557L288.668,223.015C288.668,234.81 298.278,244.366 310.146,244.366C322.004,244.366 331.624,234.81 331.624,223.015Z" style="fill:rgb(0,162,174);fill-rule:nonzero;"/>
        <path d="M100.69,228.013L100.69,90.554C100.69,78.76 91.07,69.204 79.211,69.204C67.344,69.204 57.733,78.76 57.733,90.554L57.733,228.013C57.733,239.807 67.344,249.363 79.211,249.363C91.07,249.363 100.69,239.807 100.69,228.013Z" style="fill:rgb(0,162,174);fill-rule:nonzero;"/>
        <path d="M42.955,207.682L42.955,70.224C42.955,58.429 33.336,48.873 21.477,48.873C9.61,48.873 0,58.429 0,70.224L0,207.682C0,219.477 9.61,229.032 21.477,229.032C33.336,229.032 42.955,219.477 42.955,207.682Z" style="fill:rgb(2,179,191);fill-rule:nonzero;"/>
        <path d="M317.739,283.682L331.624,283.682L331.624,280.767L320.999,280.767L320.999,275.786L330.299,275.786L330.299,272.871L320.999,272.871L320.999,268.048L331.491,268.048L331.491,265.134L317.739,265.134L317.739,283.682Z" style="fill:white;fill-rule:nonzero;"/>
        <path d="M296.724,283.682L299.93,283.682L299.93,270.486L310.158,283.682L312.887,283.682L312.887,265.134L309.681,265.134L309.681,277.959L299.744,265.134L296.724,265.134L296.724,283.682Z" style="fill:white;fill-rule:nonzero;"/>
        <rect x="288.57" y="265.133" width="3.259" height="18.549" style="fill:white;"/>
        <path d="M268.268,283.682L271.527,283.682L271.527,275.866L280.378,275.866L280.378,283.682L283.637,283.682L283.637,265.134L280.378,265.134L280.378,272.844L271.527,272.844L271.527,265.134L268.268,265.134L268.268,283.682Z" style="fill:white;fill-rule:nonzero;"/>
        <path d="M257.542,284C261.013,284 263.133,282.729 265.067,280.715L262.974,278.594C261.384,280.079 259.926,281.006 257.648,281.006C254.097,281.006 251.527,278.038 251.527,274.408L251.527,274.355C251.527,270.725 254.097,267.81 257.648,267.81C259.767,267.81 261.358,268.737 262.841,270.115L264.935,267.704C263.159,266.008 261.092,264.816 257.674,264.816C252.057,264.816 248.109,269.134 248.109,274.408L248.109,274.461C248.109,279.787 252.136,284 257.542,284Z" style="fill:white;fill-rule:nonzero;"/>
        <path d="M227.71,283.682L231.05,283.682L232.957,279.204L241.728,279.204L243.609,283.682L247.054,283.682L238.893,265.001L235.872,265.001L227.71,283.682ZM234.15,276.316L237.329,268.896L240.536,276.316L234.15,276.316Z" style="fill:white;fill-rule:nonzero;"/>
        <path d="M206.536,283.682L209.743,283.682L209.743,270.433L215.545,279.125L215.652,279.125L221.507,270.38L221.507,283.682L224.767,283.682L224.767,265.134L221.296,265.134L215.652,273.904L210.007,265.134L206.536,265.134L206.536,283.682Z" style="fill:white;fill-rule:nonzero;"/>
        <path d="M181.009,283.602L194.972,283.602L194.972,280.671L184.286,280.671L184.286,275.661L193.641,275.661L193.641,272.731L184.286,272.731L184.286,267.881L194.839,267.881L194.839,264.95L181.009,264.95L181.009,283.602Z" style="fill:rgb(159,150,141);fill-rule:nonzero;"/>
        <path d="M160.482,283.602L163.76,283.602L163.76,275.742L172.66,275.742L172.66,283.602L175.939,283.602L175.939,264.95L172.66,264.95L172.66,272.705L163.76,272.705L163.76,264.95L160.482,264.95L160.482,283.602Z" style="fill:rgb(159,150,141);fill-rule:nonzero;"/>
        <path d="M147.981,283.602L151.284,283.602L151.284,267.989L157.201,267.989L157.201,264.95L142.065,264.95L142.065,267.989L147.981,267.989L147.981,283.602Z" style="fill:rgb(159,150,141);fill-rule:nonzero;"/>
        <path d="M117.923,283.602L121.2,283.602L121.2,276.008L130.608,276.008L130.608,273.024L121.2,273.024L121.2,267.934L131.806,267.934L131.806,264.95L117.923,264.95L117.923,283.602Z" style="fill:rgb(159,150,141);fill-rule:nonzero;"/>
        <path d="M104.006,283.923C109.735,283.923 113.785,279.526 113.785,274.277L113.785,274.222C113.785,268.973 109.787,264.631 104.059,264.631C98.33,264.631 94.279,269.026 94.279,274.277L94.279,274.33C94.279,279.579 98.275,283.923 104.006,283.923ZM104.059,280.912C100.355,280.912 97.717,277.901 97.717,274.277L97.717,274.222C97.717,270.598 100.302,267.642 104.006,267.642C107.71,267.642 110.347,270.653 110.347,274.277L110.347,274.33C110.347,277.954 107.763,280.912 104.059,280.912Z" style="fill:rgb(159,150,141);fill-rule:nonzero;"/>
        <path d="M70.168,283.682L84.052,283.682L84.052,280.767L73.427,280.767L73.427,275.786L82.728,275.786L82.728,272.871L73.427,272.871L73.427,268.048L83.92,268.048L83.92,265.134L70.168,265.134L70.168,283.682Z" style="fill:white;fill-rule:nonzero;"/>
        <path d="M59.442,284C62.913,284 65.033,282.729 66.967,280.715L64.874,278.594C63.284,280.079 61.826,281.006 59.548,281.006C55.997,281.006 53.426,278.038 53.426,274.408L53.426,274.355C53.426,270.725 55.997,267.81 59.548,267.81C61.667,267.81 63.257,268.737 64.741,270.115L66.834,267.704C65.059,266.008 62.993,264.816 59.574,264.816C53.957,264.816 50.008,269.134 50.008,274.408L50.008,274.461C50.008,279.787 54.036,284 59.442,284Z" style="fill:white;fill-rule:nonzero;"/>
        <rect x="42.753" y="265.133" width="3.259" height="18.549" style="fill:white;"/>
        <path d="M29.033,284C34.73,284 38.757,279.628 38.757,274.408L38.757,274.355C38.757,269.134 34.783,264.816 29.086,264.816C23.389,264.816 19.361,269.188 19.361,274.408L19.361,274.461C19.361,279.681 23.336,284 29.033,284ZM29.086,281.006C25.403,281.006 22.78,278.011 22.78,274.408L22.78,274.355C22.78,270.751 25.349,267.81 29.033,267.81C32.717,267.81 35.339,270.804 35.339,274.408L35.339,274.461C35.339,278.065 32.769,281.006 29.086,281.006Z" style="fill:white;fill-rule:nonzero;"/>
        <path d="M7.71,283.815L10.572,283.815L18.283,265.134L14.758,265.134L9.194,279.389L3.603,265.134L0,265.134L7.71,283.815Z" style="fill:white;fill-rule:nonzero;"/>
        <path d="M356.916,76.18L358.901,81.739L360.897,76.18L363.103,76.18L363.103,83.945L361.679,83.945L361.679,77.68L359.531,83.945L358.289,83.945L356.121,77.68L356.121,83.945L354.696,83.945L354.696,76.18L356.916,76.18ZM346.76,77.476L346.76,76.18L353.379,76.18L353.379,77.476L350.841,77.476L350.841,83.945L349.299,83.945L349.299,77.476L346.76,77.476Z" style="fill:white;fill-rule:nonzero;"/>
        <g transform="matrix(0.900911,0,0,0.900911,-1604.39,-273.513)">
            <g transform="matrix(1,0,0,1,2236.33,545.113)">
                <text x="0px" y="0px" style="font-family:'Gotham-Medium', 'Gotham';font-weight:350;font-size:279.167px;fill:white;">E</text>
            </g>
            <g transform="matrix(1,0,0,1,2420.58,545.113)">
                <text x="0px" y="0px" style="font-family:'Gotham-Medium', 'Gotham';font-weight:350;font-size:279.167px;fill:white;">dge</text>
            </g>
        </g>
    </g>
</svg>
