<svg viewBox="0 0 3637 450" xmlns="http://www.w3.org/2000/svg" fill-rule="evenodd" clip-rule="evenodd" stroke-linejoin="round" stroke-miterlimit="1.414"><path d="M1198.222 228.546V73.921c0-13.267-10.821-24.017-24.163-24.017-13.35 0-24.158 10.75-24.158 24.017v154.625c0 13.267 10.808 24.017 24.158 24.017 13.342 0 24.163-10.75 24.163-24.017z" fill="#02b3bf" fill-rule="nonzero"/><path d="M1133.28 178.642V24.02C1133.28 10.75 1122.46 0 1109.118 0c-13.35 0-24.159 10.75-24.159 24.02v154.622c0 13.27 10.809 24.02 24.159 24.02 13.341 0 24.162-10.75 24.162-24.02zM1263.164 200.117V45.492c0-13.267-10.821-24.017-24.159-24.017-13.35 0-24.162 10.75-24.162 24.017v154.625c0 13.27 10.812 24.017 24.162 24.017 13.338 0 24.159-10.746 24.159-24.017z" fill="#78c8d2" fill-rule="nonzero"/><path d="M1328.11 250.334V95.708c0-13.266-10.821-24.016-24.163-24.016-13.35 0-24.158 10.75-24.158 24.016v154.626c0 13.266 10.808 24.016 24.158 24.016 13.342 0 24.162-10.75 24.162-24.016zM1068.334 255.954V101.33c0-13.266-10.82-24.016-24.158-24.016-13.35 0-24.163 10.75-24.163 24.016v154.625c0 13.267 10.813 24.017 24.163 24.017 13.337 0 24.158-10.75 24.158-24.017z" fill="#00a2ae" fill-rule="nonzero"/><path d="M1003.392 233.084V78.458c0-13.266-10.82-24.016-24.162-24.016-13.35 0-24.158 10.75-24.158 24.016v154.626c0 13.27 10.808 24.016 24.158 24.016 13.342 0 24.162-10.746 24.162-24.016z" fill="#02b3bf" fill-rule="nonzero"/><path d="M2578.99 404.204h146.654v-30.783h-112.225V320.81h98.233v-30.784h-98.233v-50.937h110.82v-30.784h-145.25v195.9zM2357.031 404.204h33.867v-139.37l108.025 139.37h28.829v-195.9h-33.867V343.76l-104.95-135.455h-31.904v195.9zM2270.918 208.296h34.421v195.908h-34.42zM2056.49 404.204h34.42V321.65h93.48v82.554h34.42v-195.9h-34.42v81.438h-93.48v-81.438h-34.42v195.9zM1943.202 407.563c36.662 0 59.05-13.425 79.479-34.696l-22.109-22.396c-16.795 15.675-32.187 25.467-56.254 25.467-37.504 0-64.65-31.346-64.65-69.68v-.562c0-38.342 27.146-69.13 64.65-69.13 22.388 0 39.184 9.793 54.85 24.347l22.113-25.463c-18.754-17.912-40.575-30.508-76.688-30.508-59.325 0-101.025 45.617-101.025 101.317v.554c0 56.254 42.538 100.75 99.634 100.75zM1628.122 404.204h35.271l20.146-47.295h92.637l19.871 47.295h36.384l-86.2-197.304h-31.909l-86.2 197.304zm68.013-77.8l33.579-78.366 33.867 78.366h-67.446zM1404.484 404.204h33.867V264.271l61.284 91.8h1.125l61.845-92.354v140.487h34.43v-195.9h-36.663l-59.612 92.63-59.613-92.63h-36.663v195.9z" fill="#fff" fill-rule="nonzero"/><path d="M1286.105 404.204h55.492V392.56h-42.467v-19.913h37.175V361h-37.175v-19.27h41.938v-11.65h-54.963v74.124zM1204.534 404.204h13.025v-31.237h35.371v31.237h13.034V330.08h-13.034V360.9h-35.37v-30.82h-13.026v74.124zM1154.855 404.204h13.125v-62.05h23.513V330.08h-60.15v12.075h23.512v62.05zM1035.405 404.204h13.025v-30.179h37.383v-11.858h-37.383v-20.23h42.146V330.08h-55.171v74.125zM980.1 405.48c22.763 0 38.863-17.476 38.863-38.334v-.217c0-20.858-15.887-38.116-38.654-38.116-22.767 0-38.862 17.466-38.862 38.333v.213c0 20.858 15.879 38.12 38.654 38.12zm.21-11.967c-14.722 0-25.2-11.963-25.2-26.367v-.217c0-14.404 10.27-26.15 24.99-26.15 14.717 0 25.2 11.967 25.2 26.367v.213c0 14.4-10.27 26.154-24.99 26.154z" fill="#9f968d" fill-rule="nonzero"/><path d="M741.109 404.204h146.646v-30.783H775.53V320.81h98.233v-30.784H775.53v-50.937h110.829v-30.784h-145.25v195.9zM627.821 407.563c36.663 0 59.05-13.425 79.48-34.696l-22.109-22.396c-16.796 15.675-32.187 25.467-56.254 25.467-37.504 0-64.65-31.346-64.65-69.68v-.562c0-38.342 27.146-69.13 64.65-69.13 22.388 0 39.183 9.793 54.85 24.347l22.113-25.463c-18.755-17.912-40.58-30.508-76.688-30.508-59.325 0-101.025 45.617-101.025 101.317v.554c0 56.254 42.537 100.75 99.633 100.75zM451.559 208.296h34.42v195.908h-34.42zM306.646 407.563c60.175 0 102.708-46.175 102.708-101.304v-.563c0-55.137-41.979-100.754-102.145-100.754-60.175 0-102.717 46.179-102.717 101.317v.554c0 55.137 41.987 100.75 102.154 100.75zm.563-31.625c-38.909 0-66.609-31.625-66.609-69.68v-.562c0-38.067 27.138-69.13 66.046-69.13 38.904 0 66.608 31.626 66.608 69.693v.554c0 38.062-27.15 69.125-66.045 69.125zM81.438 405.609h30.22l81.446-197.305H155.88L97.104 358.867l-59.05-150.563H0L81.438 405.61zM2786.427 211.021l5.28 14.783 5.308-14.783h5.866v20.65h-3.787v-16.663l-5.713 16.663h-3.304l-5.766-16.663v16.663h-3.788v-20.65h5.904zm-27.008 3.446v-3.446h17.6v3.446h-6.75v17.204h-4.1v-17.204h-6.75zM3569.113 407.617c27.08 0 46.34-10.888 60.3-27.638l-19.82-17.587c-11.73 11.446-23.45 17.587-39.92 17.587-21.78 0-38.81-13.4-42.44-37.408h108.32c.28-3.35.56-6.42.56-9.492 0-42.433-23.73-79.283-70.63-79.283-42.16 0-72.03 34.617-72.03 76.771v.558c0 45.504 32.95 76.492 75.66 76.492zm-42.16-87.379c3.08-22.892 17.59-38.805 38.25-38.805 22.33 0 35.18 17.03 37.41 38.805h-75.66zM3380.113 449.492c26.52 0 47.18-6.42 60.58-19.82 12.29-12.284 18.71-30.709 18.71-55.555v-117.25h-33.78v22.054c-11.45-13.679-26.8-25.125-51.65-25.125-34.34 0-67 25.683-67 69.233v.56c0 43.27 32.38 68.953 67 68.953 24.29 0 39.64-11.167 51.93-27.079v11.445c0 29.592-16.48 45.225-46.62 45.225-20.11 0-36.86-5.862-52.49-15.633l-12.56 25.404c18.98 11.446 41.6 17.588 65.88 17.588zm2.79-85.425c-23.17 0-41.87-16.47-41.87-40.759v-.558c0-24.287 18.42-40.479 41.87-40.479 23.45 0 43.27 16.471 43.27 40.758v.56c0 23.728-19.82 40.478-43.27 40.478zM3188.333 407.338c24 0 39.36-12.284 50.25-27.638v24.567h33.77V200.475h-33.77v79.283c-10.61-13.679-25.97-25.962-50.25-25.962-35.18 0-68.4 27.637-68.4 76.492v.558c0 48.854 33.78 76.492 68.4 76.492zm8.09-29.313c-22.89 0-42.43-18.704-42.43-47.179v-.558c0-29.313 19.26-47.18 42.43-47.18 22.61 0 42.71 18.705 42.71 47.18v.558c0 28.196-20.1 47.18-42.71 47.18zM2947.122 404.267h146.29v-30.709h-111.95v-52.483h97.99v-30.708h-97.99v-50.809h110.55V208.85h-144.89v195.417z" fill="#fff" fill-rule="nonzero"/></svg>